<svg width="165" height="164" viewBox="0 0 165 164" fill="none" xmlns="http://www.w3.org/2000/svg">
<ellipse cx="82.4999" cy="82" rx="82.2216" ry="82" fill="#F9F9FA"/>
<path d="M69.8118 54.5288C69.8303 48.0366 74.1621 45.1651 79.6777 47.682V48.7272C74.6585 46.4906 70.733 49.1279 70.7162 55.0495L70.3394 54.8384L69.7687 56.1644L69.8118 54.5288Z" fill="#6BB5FB"/>
<path d="M72.5462 53.5177C71.989 53.1949 71.2173 53.2403 70.3653 53.7309C68.6723 54.7058 67.305 57.0676 67.3105 59.0079C67.3132 59.9717 67.6542 60.6498 68.2044 60.9687L69.1938 61.5421C68.6437 61.2232 68.3027 60.5453 68.3 59.5815C68.2944 57.6412 69.6617 55.2792 71.3548 54.3043C72.2067 53.814 72.9784 53.7682 73.5356 54.0911L72.5462 53.5177Z" fill="#356AF1"/>
<path d="M74.8058 53.2217C74.0654 52.7927 73.0401 52.8532 71.9081 53.505C69.6585 54.8003 67.8418 57.9385 67.8491 60.5166C67.8528 61.7971 68.3059 62.6982 69.0368 63.1219L71.2656 64.4135C70.5347 63.9899 70.0816 63.0891 70.078 61.8085C70.0706 59.2305 71.8874 56.092 74.1369 54.7967C75.2689 54.1451 76.2943 54.0844 77.0347 54.5133L74.8058 53.2217Z" fill="#2E4277"/>
<path d="M74.1362 54.7966C76.3857 53.5013 78.2143 54.5406 78.2217 57.1186C78.229 59.6964 76.4123 62.8346 74.1627 64.1299C71.9131 65.4252 70.0845 64.3859 70.0772 61.8081C70.0699 59.2301 71.8866 56.0919 74.1362 54.7966Z" fill="#2E4277"/>
<path d="M74.2375 56.2447C75.789 55.3514 77.0501 56.0682 77.0552 57.8462C77.0602 59.624 75.8073 61.7884 74.2558 62.6817C72.7043 63.5751 71.4432 62.8583 71.4381 61.0805C71.433 59.3024 72.686 57.1381 74.2375 56.2447Z" fill="#1B2A4F"/>
<path d="M73.8575 62.216C75.4089 61.3226 76.6619 59.1583 76.6568 57.3804C76.6554 56.88 76.5544 56.4636 76.3755 56.1436C76.7968 56.4643 77.0529 57.0478 77.0552 57.8461C77.0602 59.624 75.8073 61.7883 74.2558 62.6817C73.141 63.3236 72.176 63.1341 71.7194 62.3171C72.2364 62.7107 73.0025 62.7082 73.8575 62.216Z" fill="#384E85"/>
<path d="M77.0264 46.6587C75.2155 47.7076 74.0916 49.9365 74.0832 53.096L74.0407 54.7336L70.6739 56.6844L70.7163 55.0509C70.7248 51.8873 71.8486 49.6583 73.6595 48.6094L77.0264 46.6587Z" fill="#9AADFD"/>
<path d="M71.2608 64.8649C71.438 68.892 72.0024 72.3821 72.0024 72.3821C72.2781 76.1714 71.2583 78.9838 72.3293 80.0157C72.3901 83.1032 73.3538 87.1737 73.3538 87.1737L83.7719 87.7695L90.1996 75.9996C89.215 72.7484 90.1224 72.6936 90.3631 71.5199C90.4113 71.2852 90.4454 71.1588 90.4454 71.1588C89.6977 74.6954 92.1839 59.4119 89.1372 54.4397C86.5159 50.162 71.417 50.4348 70.6406 55.5667C69.908 59.5697 69.9653 61.4304 71.2608 64.8649Z" fill="#D9DDF6"/>
<path d="M70.7162 55.0493C70.7234 52.5163 71.4458 50.5843 72.663 49.3776C74.2914 47.7633 75.4896 46.248 81.5386 45.6615C102.72 43.6075 93.8778 69.6126 93.8778 69.6126L89.1356 69.9284C89.5794 58.0418 85.6025 56.9904 83.6486 57.1789C82.1972 57.319 80.7368 57.4118 79.2941 57.2003C76.1749 56.7429 74.6041 55.6207 73.0687 54.0628C72.7703 53.76 72.2635 53.8405 72.054 54.2099C70.1803 57.516 71.2608 64.8652 71.2608 64.8652C68.7777 60.607 70.7162 55.0493 70.7162 55.0493Z" fill="#384E85"/>
<path d="M92.5637 66.2979C91.8233 65.869 90.7979 62.0875 89.6659 62.7394C87.4163 64.0347 85.5996 67.1729 85.6069 69.7509C85.6106 71.0315 86.0637 71.9326 86.7946 72.3562L89.0234 73.6479C88.2925 73.2242 87.8394 72.3234 87.8358 71.0429C87.8284 68.4648 89.6452 65.3263 91.8947 64.031C93.0267 63.3795 94.0521 63.3187 94.7925 63.7477L92.5637 66.2979Z" fill="#384E85"/>
<path d="M91.895 64.031C94.1445 62.7357 95.9731 63.775 95.9804 66.353C95.9878 68.9308 94.1711 72.069 91.9215 73.3643C89.6719 74.6596 87.8433 73.6203 87.836 71.0425C87.8287 68.4645 89.6454 65.3263 91.895 64.031Z" fill="#1B2A4F"/>
<path d="M94.4509 65.1539C93.8937 64.8311 93.122 64.8766 92.2701 65.3672C90.577 66.342 89.2097 68.7039 89.2152 70.6441C89.218 71.6079 89.559 72.2861 90.1091 72.6049L91.375 73.3385C90.8249 73.0197 90.4839 72.3417 90.4811 71.3779C90.4756 69.4377 91.8429 67.0756 93.5359 66.1008C94.3879 65.6104 95.1596 65.5647 95.7168 65.8875L94.4509 65.1539Z" fill="#356AF1"/>
<path d="M93.5361 66.1011C95.2291 65.1262 96.6053 65.9084 96.6108 67.8487C96.6163 69.7887 95.2491 72.1506 93.556 73.1255C91.863 74.1003 90.4867 73.3181 90.4812 71.3781C90.4757 69.4378 91.843 67.076 93.5361 66.1011Z" fill="#B7C5FD"/>
<path d="M95.1274 65.2134L95.0849 68.9138L91.7181 70.8645L91.7605 67.1684C91.7817 60.2321 86.875 51.7562 80.8232 48.2711C77.7782 46.5201 75.0132 46.3594 73.0157 47.514L76.3868 45.5633C78.38 44.4044 81.1451 44.5651 84.1901 46.3203C90.2418 49.8054 95.1486 58.2813 95.1274 65.2134Z" fill="#B7C5FD"/>
<path d="M80.8217 48.2716C86.8734 51.7561 91.7799 60.2316 91.7602 67.1667L91.7548 67.3714H90.8394L90.8585 66.6475C90.8766 60.2834 86.3722 52.5026 80.8188 49.3049C76.4414 46.7844 72.7096 47.8643 71.3121 51.5465H70.1941C71.4489 46.8717 75.7379 45.3443 80.8217 48.2716Z" fill="#356AF1"/>
<path d="M72.0026 72.3825C72.0026 72.3825 71.555 85.6241 76.7818 86.8619C83.1285 88.3648 86.7368 79.5957 92.1 78.5374C92.1 78.5374 94.8683 80.1632 97.915 82.4185C102.726 85.9799 105.587 91.5881 105.587 97.5634L105.888 113.801C105.888 115.372 104.991 116.795 103.57 117.475C99.2732 119.53 90.0693 123.845 72.0368 113.801C72.0368 113.801 72.019 113.79 71.985 113.769C65.2018 109.545 61.3277 106.016 60.3901 96.3627C60.3901 96.3627 57.2767 64.9749 72.0026 72.3825Z" fill="#2E4277"/>
<path d="M70.7596 74.416C70.9322 74.4721 71.1009 74.5191 71.2794 74.5901C71.5668 77.9439 73.2156 82.2694 77.3427 84.6098C77.3427 84.6098 82.0719 87.3458 87.7701 81.427C89.118 81.4058 90.5567 78.8419 92.1001 78.5374C92.1001 78.5374 78.1922 106.659 72.0368 113.801C72.0368 113.801 71.558 113.466 70.8321 112.913L70.9124 112.758C70.9124 112.758 65.5576 98.3093 70.7596 74.416Z" fill="#4466FB"/>
<path d="M72.4251 81.8438L75.2141 89.1772L69.7396 105.559L70.8323 112.913L72.037 113.801L76.1744 108.367L77.3565 90.3822L81.4937 86.9443L72.4251 81.8438Z" fill="#2B3C67"/>
<path d="M72.0026 72.3823C72.0026 72.3823 71.7363 78.923 77.3428 84.6097C77.3428 84.6097 73.2777 87.5312 71.7363 87.5312C71.7363 87.5312 68.8825 81.0723 69.3181 77.9449C69.7538 74.8174 71.4667 75.1296 72.0026 72.3823Z" fill="#4A7FFF"/>
<path d="M92.1001 78.537C92.1001 78.537 91.2187 77.7777 90.1998 75.9995C90.1998 75.9995 84.874 85.0458 77.3427 84.6094C77.3427 84.6094 78.295 89.1589 80.686 91.3164C80.686 91.3164 88.8284 87.0516 92.1001 78.537Z" fill="#4A7FFF"/>
<path d="M91.6416 94.108H86.5971L87.9343 98.9314L72.0372 113.8L92.1004 78.5371C92.1004 78.5371 96.1001 87.1072 91.6416 94.108Z" fill="#384E85"/>
<path d="M65.1782 82.6262C65.1782 82.6262 66.6675 78.3529 72.0029 72.3823C72.0029 72.3823 69.1753 97.3799 70.9127 112.758C70.9127 112.758 64.7347 94.7658 64.7347 89.1387L67.9133 86.7957L65.1782 82.6262Z" fill="#384E85"/>
<path d="M77.0156 70.84C81.2992 73.6472 88.3791 71.6806 90.0125 70.0449C90.2505 70.6039 89.9477 70.9457 90.1997 71.5015C83.8701 75.6742 76.3937 72.3819 76.657 72.1285C76.811 71.5818 76.8644 71.3874 77.0156 70.84Z" fill="#356AF1"/>
<path d="M72.7312 70.3668C72.9836 69.6108 73.8026 69.2019 74.5603 69.4537L77.7888 70.526C78.5465 70.7778 78.9562 71.5947 78.7039 72.3508C78.4514 73.1068 77.6325 73.5155 76.8747 73.2639L73.6463 72.1915C72.8886 71.9397 72.4788 71.1228 72.7312 70.3668Z" fill="#384E85"/>
</svg>
