<svg width="113" height="39" viewBox="0 0 113 39" fill="none" xmlns="http://www.w3.org/2000/svg">
<path d="M104.001 0.00012675H9.0037C8.65742 0.00012675 8.31529 0.00012675 7.96993 0.00207675C7.68083 0.00402675 7.39403 0.0096915 7.10216 0.0144592C6.46807 0.0221635 5.83547 0.0797611 5.20985 0.186751C4.58512 0.296071 3.97996 0.50217 3.41483 0.798076C2.8504 1.09649 2.33466 1.48424 1.88633 1.94727C1.43564 2.409 1.05995 2.94269 0.773721 3.52783C0.486698 4.11181 0.287675 4.73759 0.183527 5.38357C0.0783881 6.02873 0.021812 6.68133 0.0143063 7.33552C0.0055431 7.63445 0.00461768 7.93438 0 8.23336V30.7698C0.00461768 31.0725 0.0055431 31.3658 0.0143063 31.6686C0.0218143 32.3228 0.0783904 32.9753 0.183527 33.6205C0.287388 34.2668 0.486422 34.893 0.773721 35.4772C1.05982 36.0604 1.43556 36.5919 1.88633 37.0511C2.33296 37.5162 2.84903 37.9042 3.41483 38.2003C3.97995 38.497 4.58505 38.7044 5.20985 38.8154C5.83557 38.9215 6.46811 38.9791 7.10216 38.9877C7.39403 38.9944 7.68083 38.9982 7.96993 38.9982C8.31528 39.0001 8.65744 39.0001 9.0037 39.0001H104.001C104.341 39.0001 104.686 39.0001 105.025 38.9982C105.313 38.9982 105.608 38.9944 105.896 38.9877C106.528 38.9796 107.16 38.922 107.784 38.8154C108.411 38.7036 109.018 38.4963 109.586 38.2003C110.151 37.904 110.667 37.516 111.113 37.0511C111.563 36.5901 111.939 36.059 112.229 35.4772C112.514 34.8925 112.711 34.2664 112.814 33.6205C112.919 32.9752 112.978 32.3228 112.989 31.6686C112.993 31.3658 112.993 31.0725 112.993 30.7698C113 30.4155 113 30.0633 113 29.7033V9.29785C113 8.9408 113 8.5866 112.993 8.23336C112.993 7.93438 112.993 7.63445 112.989 7.33548C112.978 6.68124 112.919 6.02878 112.814 5.38353C112.711 4.73793 112.514 4.11219 112.229 3.52779C111.646 2.35494 110.722 1.40025 109.586 0.797989C109.018 0.502805 108.411 0.296761 107.784 0.186664C107.16 0.079202 106.528 0.0215843 105.896 0.0143227C105.608 0.00956475 105.313 0.00385125 105.025 0.00195C104.686 0 104.341 0 104.001 0V0.00012675Z" fill="#A6A6A6"/>
<path d="M7.97485 38.1468C7.68714 38.1468 7.40638 38.143 7.12092 38.1363C6.52958 38.1284 5.93962 38.0752 5.35588 37.9773C4.81157 37.8805 4.28428 37.7005 3.7914 37.4431C3.30304 37.1879 2.85762 36.8532 2.4722 36.4519C2.0812 36.0554 1.75567 35.5954 1.50852 35.0903C1.25865 34.582 1.08572 34.0371 0.995759 33.4746C0.898613 32.8702 0.846053 32.2591 0.838532 31.6465C0.832545 31.4408 0.824707 30.7562 0.824707 30.7562V8.23313C0.824707 8.23313 0.833055 7.55901 0.838579 7.36096C0.84578 6.74932 0.898035 6.13914 0.994891 5.53569C1.08501 4.97167 1.25808 4.42518 1.50809 3.91514C1.75433 3.4104 2.07805 2.95012 2.46669 2.55214C2.8549 2.15038 3.30175 1.81399 3.79094 1.55523C4.28268 1.29869 4.80897 1.11992 5.35218 1.02489C5.93784 0.925993 6.52985 0.872524 7.12325 0.864932L7.97532 0.853027H105.021L105.883 0.86541C106.471 0.872624 107.058 0.925616 107.638 1.02394C108.187 1.12015 108.718 1.30018 109.216 1.55809C110.196 2.07956 110.993 2.90459 111.496 3.91752C111.742 4.42404 111.913 4.96607 112.002 5.52522C112.1 6.13362 112.154 6.7486 112.166 7.36525C112.168 7.64137 112.168 7.93796 112.168 8.23313C112.176 8.59876 112.176 8.94677 112.176 9.29763V29.7031C112.176 30.0573 112.176 30.4029 112.168 30.7514C112.168 31.0685 112.168 31.3589 112.165 31.6579C112.154 32.2635 112.1 32.8675 112.003 33.465C111.915 34.0316 111.743 34.5807 111.493 35.0933C111.245 35.5929 110.921 36.0488 110.534 36.4443C110.149 36.8478 109.702 37.1844 109.213 37.4413C108.717 37.7006 108.186 37.8813 107.638 37.9773C107.054 38.0758 106.464 38.1289 105.873 38.1363C105.596 38.143 105.307 38.1468 105.025 38.1468L104.002 38.1487L7.97485 38.1468Z" fill="black"/>
<path d="M23.3898 19.7935C23.3999 18.9797 23.6093 18.1818 23.9984 17.474C24.3874 16.7662 24.9436 16.1715 25.6151 15.7452C25.1885 15.1162 24.6257 14.5985 23.9715 14.2334C23.3173 13.8682 22.5896 13.6655 21.8462 13.6415C20.2605 13.4697 18.7232 14.6212 17.9151 14.6212C17.0914 14.6212 15.8473 13.6586 14.5076 13.687C13.641 13.7159 12.7965 13.9761 12.0562 14.4422C11.316 14.9083 10.7054 15.5645 10.2838 16.3467C8.45746 19.6114 9.81971 24.4094 11.5691 27.0484C12.4444 28.3406 13.4674 29.784 14.8059 29.7328C16.1157 29.6768 16.6049 28.8705 18.186 28.8705C19.7523 28.8705 20.2113 29.7328 21.577 29.7003C22.9825 29.6767 23.868 28.4023 24.7126 27.0979C25.3415 26.1771 25.8254 25.1595 26.1464 24.0827C25.3299 23.7261 24.633 23.1292 24.1428 22.3665C23.6526 21.6038 23.3907 20.7089 23.3898 19.7935Z" fill="white"/>
<path d="M20.8104 11.9058C21.5767 10.9559 21.9543 9.73507 21.8628 8.50244C20.6921 8.62941 19.6106 9.20715 18.8339 10.1206C18.4541 10.5668 18.1633 11.0859 17.978 11.6483C17.7927 12.2106 17.7165 12.8052 17.7539 13.3979C18.3395 13.4041 18.9188 13.2731 19.4483 13.0146C19.9777 12.7562 20.4434 12.377 20.8104 11.9058Z" fill="white"/>
<path d="M39.9467 26.4615H35.4769L34.4035 29.734H32.5103L36.744 17.6265H38.711L42.9447 29.734H41.0192L39.9467 26.4615ZM35.9398 24.9514H39.4829L37.7363 19.6403H37.6874L35.9398 24.9514Z" fill="white"/>
<path d="M52.0886 25.3211C52.0886 28.0643 50.6666 29.8267 48.5207 29.8267C47.9771 29.8561 47.4364 29.7268 46.9607 29.4536C46.485 29.1805 46.0933 28.7746 45.8307 28.2823H45.7901V32.6546H44.0352V20.907H45.7338V22.3752H45.7661C46.0409 21.8853 46.4391 21.4815 46.9185 21.2067C47.3978 20.9319 47.9404 20.7964 48.4884 20.8146C50.6582 20.8146 52.0886 22.5856 52.0886 25.3211ZM50.2848 25.3211C50.2848 23.534 49.3903 22.359 48.0254 22.359C46.6846 22.359 45.7827 23.5587 45.7827 25.3211C45.7827 27.0998 46.6846 28.2909 48.0254 28.2909C49.3903 28.2909 50.2848 27.1245 50.2848 25.3211Z" fill="white"/>
<path d="M61.4982 25.3211C61.4982 28.0643 60.0762 29.8267 57.9303 29.8267C57.3867 29.8561 56.8461 29.7268 56.3704 29.4536C55.8946 29.1805 55.503 28.7746 55.2403 28.2823H55.1997V32.6546H53.4448V20.907H55.1435V22.3752H55.1757C55.4505 21.8853 55.8487 21.4814 56.3281 21.2066C56.8075 20.9318 57.35 20.7964 57.898 20.8146C60.0679 20.8146 61.4982 22.5856 61.4982 25.3211ZM59.6945 25.3211C59.6945 23.534 58.7999 22.359 57.4351 22.359C56.0943 22.359 55.1924 23.5587 55.1924 25.3211C55.1924 27.0997 56.0943 28.2909 57.4351 28.2909C58.7999 28.2909 59.6945 27.1245 59.6945 25.3211H59.6945Z" fill="white"/>
<path d="M67.7173 26.3608C67.8474 27.5614 68.977 28.3498 70.5208 28.3498C71.9999 28.3498 73.0641 27.5614 73.0641 26.4788C73.0641 25.539 72.4223 24.9763 70.9025 24.5907L69.3828 24.2127C67.2295 23.6757 66.2299 22.6359 66.2299 20.9487C66.2299 18.8597 67.9931 17.4248 70.4968 17.4248C72.9746 17.4248 74.6733 18.8597 74.7305 20.9487H72.959C72.8529 19.7404 71.8856 19.0111 70.4719 19.0111C69.0582 19.0111 68.0908 19.749 68.0908 20.823C68.0908 21.679 68.7087 22.1827 70.2201 22.5683L71.5121 22.8958C73.918 23.4833 74.9177 24.4812 74.9177 26.2521C74.9177 28.5173 73.1701 29.936 70.3907 29.936C67.7902 29.936 66.0343 28.5506 65.9209 26.3607L67.7173 26.3608Z" fill="white"/>
<path d="M78.7045 18.8179V20.9069H80.3303V22.3418H78.7045V27.2082C78.7045 27.9642 79.0301 28.3165 79.7447 28.3165C79.9377 28.313 80.1304 28.299 80.322 28.2746V29.7009C80.0007 29.7629 79.6741 29.791 79.3473 29.7847C77.6164 29.7847 76.9413 29.1134 76.9413 27.4015V22.3418H75.6982V20.9069H76.9413V18.8179H78.7045Z" fill="white"/>
<path d="M81.2725 25.321C81.2725 22.5436 82.8568 20.7983 85.3273 20.7983C87.8061 20.7983 89.383 22.5436 89.383 25.321C89.383 28.1061 87.8144 29.8437 85.3273 29.8437C82.841 29.8437 81.2725 28.1061 81.2725 25.321ZM87.5949 25.321C87.5949 23.4158 86.7493 22.2913 85.3273 22.2913C83.9053 22.2913 83.0606 23.4244 83.0606 25.321C83.0606 27.2339 83.9053 28.3498 85.3273 28.3498C86.7493 28.3498 87.5949 27.2339 87.5949 25.321H87.5949Z" fill="white"/>
<path d="M90.8296 20.9069H92.5034V22.4094H92.544C92.6572 21.9401 92.9235 21.5254 93.298 21.235C93.6725 20.9445 94.1324 20.7961 94.6004 20.8145C94.8027 20.8138 95.0043 20.8365 95.2017 20.8821V22.577C94.9464 22.4964 94.68 22.4594 94.4132 22.4675C94.1582 22.4568 93.9041 22.5032 93.6682 22.6035C93.4322 22.7038 93.2201 22.8557 93.0464 23.0486C92.8726 23.2415 92.7414 23.471 92.6617 23.7213C92.582 23.9715 92.5556 24.2366 92.5845 24.4984V29.7343H90.8296L90.8296 20.9069Z" fill="white"/>
<path d="M103.293 27.1416C103.057 28.744 101.545 29.8437 99.6114 29.8437C97.1243 29.8437 95.5806 28.1232 95.5806 25.3629C95.5806 22.5941 97.1326 20.7983 99.5376 20.7983C101.903 20.7983 103.39 22.476 103.39 25.1525V25.7733H97.3521V25.8828C97.3242 26.2077 97.3636 26.535 97.4676 26.8429C97.5717 27.1508 97.738 27.4324 97.9555 27.6689C98.173 27.9054 98.4368 28.0914 98.7293 28.2145C99.0218 28.3377 99.3363 28.3951 99.652 28.3831C100.067 28.4233 100.483 28.3241 100.839 28.1004C101.194 27.8767 101.471 27.5404 101.626 27.1415L103.293 27.1416ZM97.3604 24.507H101.635C101.65 24.2149 101.608 23.9225 101.509 23.6484C101.41 23.3742 101.257 23.1241 101.06 22.9137C100.863 22.7033 100.626 22.5372 100.364 22.4259C100.102 22.3145 99.8209 22.2603 99.5376 22.2666C99.2518 22.2648 98.9686 22.3215 98.7041 22.4334C98.4397 22.5452 98.1993 22.7101 97.9969 22.9184C97.7945 23.1267 97.634 23.3743 97.5247 23.6469C97.4155 23.9196 97.3596 24.2119 97.3604 24.507V24.507Z" fill="white"/>
<path d="M34.6926 10.972H35.446C35.5757 10.9886 35.7074 10.9774 35.8326 10.9389C35.9579 10.9005 36.0741 10.8356 36.1739 10.7485C36.2737 10.6614 36.355 10.5539 36.4126 10.4327C36.4701 10.3115 36.5027 10.1794 36.5084 10.0446C36.5084 9.50803 36.1174 9.16145 35.4543 9.16145C35.3215 9.14228 35.1862 9.15079 35.0566 9.18649C34.9269 9.22218 34.8055 9.28433 34.6996 9.36927C34.5936 9.45421 34.5051 9.56021 34.4395 9.68102C34.3738 9.80183 34.3323 9.935 34.3173 10.0727H33.4901C33.5043 9.82277 33.5682 9.57857 33.6778 9.35529C33.7874 9.132 33.9404 8.9344 34.1271 8.77479C34.3139 8.61518 34.5305 8.49697 34.7634 8.42753C34.9964 8.35809 35.2406 8.33891 35.4811 8.37116C36.5904 8.37116 37.3716 9.01243 37.3716 9.93554C37.3742 10.2448 37.274 10.5456 37.0877 10.7878C36.9014 11.0299 36.6403 11.1988 36.3479 11.2662V11.3347C36.6945 11.3506 37.0209 11.5075 37.2557 11.7711C37.4906 12.0347 37.6148 12.3836 37.6012 12.7415C37.5755 12.9988 37.5004 13.2482 37.3802 13.4752C37.26 13.7021 37.0971 13.902 36.9011 14.063C36.7051 14.2241 36.4799 14.3432 36.2388 14.4133C35.9976 14.4833 35.7454 14.503 35.4968 14.4711C35.2476 14.5062 34.9942 14.4891 34.7516 14.4209C34.5091 14.3527 34.2823 14.2347 34.0848 14.0741C33.8873 13.9134 33.7231 13.7134 33.6021 13.4858C33.4811 13.2583 33.4057 13.0079 33.3804 12.7496H34.2205C34.2712 13.3062 34.7664 13.6652 35.4968 13.6652C36.2271 13.6652 36.7039 13.2619 36.7039 12.6935C36.7039 12.117 36.2548 11.7618 35.47 11.7618H34.6926V10.972Z" fill="white"/>
<path d="M38.5562 13.0885C38.5562 12.2982 39.127 11.8426 40.1377 11.7778L41.2895 11.7093V11.3303C41.2895 10.8666 40.9935 10.6048 40.419 10.6048C39.9505 10.6048 39.6268 10.7824 39.5327 11.0928H38.7203C38.8061 10.3387 39.494 9.85498 40.4586 9.85498C41.5247 9.85498 42.1259 10.4029 42.1259 11.3303V14.3301H41.3172V13.7131H41.2508C41.116 13.9344 40.9268 14.1148 40.7024 14.2359C40.478 14.357 40.2265 14.4145 39.9735 14.4024C39.795 14.4216 39.6146 14.4019 39.4439 14.3447C39.2732 14.2875 39.116 14.1939 38.9825 14.0701C38.849 13.9463 38.742 13.795 38.6686 13.6259C38.5952 13.4569 38.5569 13.2738 38.5562 13.0885ZM41.2895 12.7133V12.3463L40.2511 12.4148C39.6655 12.4553 39.3999 12.661 39.3999 13.048C39.3999 13.4431 39.7319 13.6731 40.1884 13.6731C40.3222 13.6871 40.4573 13.6731 40.5857 13.6321C40.7142 13.5911 40.8333 13.5238 40.936 13.4342C41.0387 13.3447 41.123 13.2347 41.1837 13.1109C41.2444 12.987 41.2804 12.8518 41.2895 12.7133Z" fill="white"/>
<path d="M44.3524 10.6693V14.3303H43.5132V9.93994H46.313V10.6692L44.3524 10.6693Z" fill="white"/>
<path d="M51.3986 12.1332C51.3986 13.5281 50.7153 14.4027 49.6419 14.4027C49.3784 14.4213 49.1152 14.3617 48.8834 14.2311C48.6516 14.1004 48.4607 13.9041 48.3333 13.6653H48.2669V15.79H47.4277V9.93997H48.2356V10.6655H48.2983C48.428 10.4183 48.6213 10.2129 48.8569 10.072C49.0926 9.93114 49.3614 9.86024 49.6336 9.86716C50.7153 9.86713 51.3986 10.7379 51.3986 12.1332ZM50.5355 12.1332C50.5355 11.2059 50.1103 10.6455 49.3994 10.6455C48.693 10.6455 48.2512 11.2178 48.2512 12.1371C48.2512 13.0521 48.693 13.6248 49.3957 13.6248C50.1103 13.6248 50.5355 13.0644 50.5355 12.1332Z" fill="white"/>
<path d="M52.5165 15.9028V15.1568C52.6073 15.1687 52.6988 15.1741 52.7903 15.173C52.9691 15.1866 53.1465 15.1316 53.2884 15.0186C53.4304 14.9055 53.5269 14.7423 53.5594 14.5602L53.6221 14.3465L52.083 9.93994H52.9969L54.063 13.4272H54.1293L55.1917 9.93994H56.0816L54.4964 14.5117C54.1331 15.58 53.731 15.9228 52.8641 15.9228C52.794 15.9228 52.5949 15.9147 52.5165 15.9028Z" fill="white"/>
<path d="M56.7349 13.0844H57.5704C57.6524 13.4715 58.0038 13.6733 58.4953 13.6733C59.0541 13.6733 59.3972 13.4191 59.3972 13.024C59.3972 12.6007 59.0892 12.3989 58.4953 12.3989H57.859V11.7257H58.4842C58.9914 11.7257 59.2496 11.5243 59.2496 11.1573C59.2496 10.835 58.9997 10.5889 58.4842 10.5889C58.0148 10.5889 57.6718 10.7945 57.6174 11.1411H56.8086C56.8691 10.7429 57.0785 10.385 57.3919 10.1446C57.7052 9.90408 58.0975 9.8002 58.4842 9.85523C59.4949 9.85523 60.0732 10.327 60.0732 11.0687C60.0779 11.2753 60.0138 11.4773 59.8916 11.6409C59.7694 11.8045 59.5965 11.9198 59.4018 11.9676V12.0361C59.6336 12.067 59.8463 12.1846 59.9996 12.3667C60.153 12.5488 60.2362 12.7827 60.2336 13.024C60.2336 13.8586 59.5457 14.4108 58.4953 14.4108C57.5667 14.4108 56.8123 13.9713 56.7349 13.0844Z" fill="white"/>
<path d="M61.4429 14.3303V9.93994H62.2747V12.9597H62.3411L64.3007 9.93995H65.1325V14.3303H64.3007V11.2944H64.238L62.2747 14.3303L61.4429 14.3303Z" fill="white"/>
<path d="M69.7149 10.6692H68.3759V14.3302H67.5358V10.6692H66.1968V9.93994H69.7149V10.6692Z" fill="white"/>
<path d="M74.235 13.1447C74.1206 13.546 73.8734 13.893 73.5365 14.1251C73.1995 14.3573 72.7943 14.4598 72.3915 14.4149C72.1114 14.4225 71.833 14.3671 71.5757 14.2525C71.3184 14.1379 71.0883 13.9669 70.9014 13.7513C70.7145 13.5357 70.5753 13.2807 70.4934 13.0039C70.4116 12.7272 70.389 12.4354 70.4273 12.1488C70.39 11.8613 70.413 11.5688 70.4946 11.2913C70.5763 11.0137 70.7148 10.7575 70.9007 10.54C71.0866 10.3225 71.3156 10.1488 71.5722 10.0306C71.8287 9.91246 72.1069 9.85258 72.3879 9.85505C73.571 9.85505 74.2857 10.6897 74.2857 12.0683V12.3706H71.2831V12.4192C71.2698 12.5804 71.2893 12.7426 71.3404 12.8955C71.3914 13.0484 71.4729 13.1886 71.5795 13.307C71.6862 13.4255 71.8157 13.5196 71.9596 13.5833C72.1036 13.647 72.2589 13.6789 72.4155 13.677C72.6161 13.7017 72.8193 13.6643 72.9993 13.5696C73.1793 13.4748 73.3279 13.3269 73.4262 13.1447L74.235 13.1447ZM71.2831 11.7298H73.4299C73.4405 11.5826 73.4212 11.4346 73.3731 11.2955C73.3251 11.1564 73.2494 11.0293 73.1509 10.9221C73.0524 10.815 72.9333 10.7304 72.8013 10.6736C72.6692 10.6169 72.5272 10.5892 72.3842 10.5925C72.239 10.5905 72.0949 10.6185 71.9604 10.6749C71.8258 10.7314 71.7037 10.8151 71.601 10.9211C71.4984 11.0271 71.4174 11.1533 71.3628 11.2922C71.3081 11.4311 71.2811 11.5799 71.2831 11.7298H71.2831Z" fill="white"/>
<path d="M77.793 9.93994H79.7102C80.542 9.93994 81.0298 10.3751 81.0298 11.0563C81.0311 11.2725 80.9605 11.4825 80.8297 11.6514C80.6989 11.8202 80.516 11.9375 80.3114 11.9837V12.0523C80.5598 12.0685 80.7926 12.1825 80.9618 12.3709C81.131 12.5592 81.2237 12.8075 81.2207 13.0644C81.2207 13.8304 80.6628 14.3303 79.7295 14.3303H77.793V9.93994ZM78.6248 10.605V11.7419H79.4566C79.9638 11.7419 80.2063 11.5405 80.2063 11.1692C80.2063 10.8269 79.9951 10.605 79.5497 10.605L78.6248 10.605ZM78.6248 12.3789V13.6652H79.6198C80.116 13.6652 80.3816 13.4391 80.3816 13.024C80.3816 12.5845 80.0809 12.3789 79.5147 12.3789L78.6248 12.3789Z" fill="white"/>
</svg>
