<svg width="164" height="164" viewBox="0 0 164 164" fill="none" xmlns="http://www.w3.org/2000/svg">
<circle cx="82" cy="82" r="82" fill="#F9F9FA"/>
<path d="M65.0569 56.293L81.0905 47.8169L81.0707 86.977L65.0371 96.2947L65.0569 56.293Z" fill="#1B2A4F"/>
<path d="M49.4287 48.1116L65.4623 38.7939L81.0904 47.8168L65.0568 57.1345L49.4287 48.1116Z" fill="#384E85"/>
<path d="M65.057 57.1347L65.0373 96.2948L49.4092 87.2719L49.4289 48.1118L65.057 57.1347Z" fill="#2E4277"/>
<path d="M51.3166 50.2928L50.3729 49.748L50.3545 86.726L64.0933 94.6585L64.0942 93.4784L51.299 86.0908L51.3166 50.2928Z" fill="#384E85"/>
<path d="M51.3164 50.293L51.2988 86.0909L64.094 93.4786L64.1124 57.6798L51.3164 50.293Z" fill="#1B2A4F"/>
<path d="M63.1461 59.0177L63.1328 63.2608L52.5923 57.1752L52.6056 52.9321L63.1461 59.0177Z" fill="#2E4277"/>
<path d="M55.1526 55.652L55.5335 55.4307L55.5195 58.1602L55.1387 58.3816L55.1526 55.652Z" fill="#3955D1"/>
<path d="M54.4849 55.2662L54.8657 55.0449L55.5335 55.4305L55.1526 55.6518L54.4849 55.2662Z" fill="#6BB5FB"/>
<path d="M55.1524 55.6516L55.1385 58.3812L54.4707 57.9957L54.4847 55.2661L55.1524 55.6516Z" fill="#4466FB"/>
<path d="M56.5144 56.4386L56.8953 56.2173L56.8813 58.9469L56.5005 59.1682L56.5144 56.4386Z" fill="#3955D1"/>
<path d="M55.8467 56.0529L56.2275 55.8315L56.8953 56.2171L56.5144 56.4384L55.8467 56.0529Z" fill="#6BB5FB"/>
<path d="M56.5142 56.4383L56.5003 59.1679L55.8325 58.7823L55.8465 56.0527L56.5142 56.4383Z" fill="#4466FB"/>
<path d="M57.8772 57.2252L58.2581 57.0039L58.2441 59.7335L57.8633 59.9548L57.8772 57.2252Z" fill="#3955D1"/>
<path d="M57.2095 56.8395L57.5903 56.6182L58.2581 57.0037L57.8772 57.225L57.2095 56.8395Z" fill="#6BB5FB"/>
<path d="M57.877 57.2249L57.8631 59.9545L57.1953 59.5689L57.2093 56.8394L57.877 57.2249Z" fill="#4466FB"/>
<path d="M59.2395 58.0118L59.6204 57.7905L59.6064 60.5201L59.2256 60.7414L59.2395 58.0118Z" fill="#3955D1"/>
<path d="M58.5718 57.6261L58.9526 57.4048L59.6204 57.7903L59.2395 58.0116L58.5718 57.6261Z" fill="#6BB5FB"/>
<path d="M59.2393 58.0115L59.2254 60.7411L58.5576 60.3556L58.5716 57.626L59.2393 58.0115Z" fill="#4466FB"/>
<path d="M60.6019 58.7985L60.9827 58.5771L60.9687 61.3067L60.5879 61.5281L60.6019 58.7985Z" fill="#3955D1"/>
<path d="M59.9341 58.4127L60.3149 58.1914L60.9827 58.5769L60.6018 58.7983L59.9341 58.4127Z" fill="#6BB5FB"/>
<path d="M60.6016 58.7981L60.5877 61.5277L59.9199 61.1422L59.9339 58.4126L60.6016 58.7981Z" fill="#4466FB"/>
<path d="M61.9642 59.5851L62.345 59.3638L62.331 62.0934L61.9502 62.3147L61.9642 59.5851Z" fill="#3955D1"/>
<path d="M61.2964 59.1994L61.6772 58.978L62.345 59.3636L61.9641 59.5849L61.2964 59.1994Z" fill="#6BB5FB"/>
<path d="M61.9639 59.5847L61.95 62.3143L61.2822 61.9288L61.2962 59.1992L61.9639 59.5847Z" fill="#4466FB"/>
<path d="M53.7898 54.8654L54.1707 54.644L54.1567 57.3736L53.7759 57.595L53.7898 54.8654Z" fill="#3955D1"/>
<path d="M53.1221 54.4796L53.5029 54.2583L54.1707 54.6438L53.7898 54.8652L53.1221 54.4796Z" fill="#6BB5FB"/>
<path d="M53.7896 54.865L53.7757 57.5946L53.1079 57.2091L53.1219 54.4795L53.7896 54.865Z" fill="#4466FB"/>
<path d="M63.1461 64.6622L63.1328 68.9053L52.5923 62.8198L52.6056 58.5767L63.1461 64.6622Z" fill="#2E4277"/>
<path d="M55.1526 61.2965L55.5335 61.0752L55.5195 63.8048L55.1387 64.0261L55.1526 61.2965Z" fill="#3955D1"/>
<path d="M54.4849 60.9108L54.8657 60.6895L55.5335 61.075L55.1526 61.2963L54.4849 60.9108Z" fill="#6BB5FB"/>
<path d="M55.1524 61.2962L55.1385 64.0258L54.4707 63.6402L54.4847 60.9106L55.1524 61.2962Z" fill="#4466FB"/>
<path d="M56.5144 62.0831L56.8953 61.8618L56.8813 64.5914L56.5005 64.8127L56.5144 62.0831Z" fill="#3955D1"/>
<path d="M55.8467 61.6974L56.2275 61.4761L56.8953 61.8616L56.5144 62.0829L55.8467 61.6974Z" fill="#6BB5FB"/>
<path d="M56.5142 62.0828L56.5003 64.8124L55.8325 64.4269L55.8465 61.6973L56.5142 62.0828Z" fill="#4466FB"/>
<path d="M57.8772 62.8697L58.2581 62.6484L58.2441 65.378L57.8633 65.5993L57.8772 62.8697Z" fill="#3955D1"/>
<path d="M57.2095 62.484L57.5903 62.2627L58.2581 62.6482L57.8772 62.8695L57.2095 62.484Z" fill="#6BB5FB"/>
<path d="M57.877 62.8694L57.8631 65.599L57.1953 65.2135L57.2093 62.4839L57.877 62.8694Z" fill="#4466FB"/>
<path d="M59.2395 63.6564L59.6204 63.4351L59.6064 66.1647L59.2256 66.386L59.2395 63.6564Z" fill="#3955D1"/>
<path d="M58.5718 63.2706L58.9526 63.0493L59.6204 63.4348L59.2395 63.6562L58.5718 63.2706Z" fill="#6BB5FB"/>
<path d="M59.2393 63.656L59.2254 66.3856L58.5576 66.0001L58.5716 63.2705L59.2393 63.656Z" fill="#4466FB"/>
<path d="M60.6019 64.443L60.9827 64.2217L60.9687 66.9513L60.5879 67.1726L60.6019 64.443Z" fill="#3955D1"/>
<path d="M59.9341 64.0572L60.3149 63.8359L60.9827 64.2215L60.6018 64.4428L59.9341 64.0572Z" fill="#6BB5FB"/>
<path d="M60.6016 64.4427L60.5877 67.1723L59.9199 66.7867L59.9339 64.0571L60.6016 64.4427Z" fill="#4466FB"/>
<path d="M61.9642 65.2296L62.345 65.0083L62.331 67.7379L61.9502 67.9592L61.9642 65.2296Z" fill="#3955D1"/>
<path d="M61.2964 64.8439L61.6772 64.6226L62.345 65.0081L61.9641 65.2294L61.2964 64.8439Z" fill="#6BB5FB"/>
<path d="M61.9639 65.2293L61.95 67.9589L61.2822 67.5733L61.2962 64.8438L61.9639 65.2293Z" fill="#4466FB"/>
<path d="M53.7898 60.5099L54.1707 60.2886L54.1567 63.0182L53.7759 63.2395L53.7898 60.5099Z" fill="#3955D1"/>
<path d="M53.1221 60.1241L53.5029 59.9028L54.1707 60.2884L53.7898 60.5097L53.1221 60.1241Z" fill="#6BB5FB"/>
<path d="M53.7896 60.5096L53.7757 63.2392L53.1079 62.8536L53.1219 60.124L53.7896 60.5096Z" fill="#4466FB"/>
<path d="M63.1461 70.3067L63.1328 74.5499L52.5923 68.4643L52.6056 64.2212L63.1461 70.3067Z" fill="#2E4277"/>
<path d="M55.1526 66.941L55.5335 66.7197L55.5195 69.4493L55.1387 69.6706L55.1526 66.941Z" fill="#3955D1"/>
<path d="M54.4849 66.5553L54.8657 66.334L55.5335 66.7195L55.1526 66.9408L54.4849 66.5553Z" fill="#6BB5FB"/>
<path d="M55.1524 66.9407L55.1385 69.6703L54.4707 69.2848L54.4847 66.5552L55.1524 66.9407Z" fill="#4466FB"/>
<path d="M56.5144 67.7277L56.8953 67.5063L56.8813 70.2359L56.5005 70.4573L56.5144 67.7277Z" fill="#3955D1"/>
<path d="M55.8467 67.3419L56.2275 67.1206L56.8953 67.5061L56.5144 67.7275L55.8467 67.3419Z" fill="#6BB5FB"/>
<path d="M56.5142 67.7273L56.5003 70.4569L55.8325 70.0714L55.8465 67.3418L56.5142 67.7273Z" fill="#4466FB"/>
<path d="M57.8772 68.5143L58.2581 68.293L58.2441 71.0226L57.8633 71.2439L57.8772 68.5143Z" fill="#3955D1"/>
<path d="M57.2095 68.1285L57.5903 67.9072L58.2581 68.2927L57.8772 68.5141L57.2095 68.1285Z" fill="#6BB5FB"/>
<path d="M57.877 68.5139L57.8631 71.2435L57.1953 70.858L57.2093 68.1284L57.877 68.5139Z" fill="#4466FB"/>
<path d="M59.2395 69.3009L59.6204 69.0796L59.6064 71.8092L59.2256 72.0305L59.2395 69.3009Z" fill="#3955D1"/>
<path d="M58.5718 68.9152L58.9526 68.6938L59.6204 69.0794L59.2395 69.3007L58.5718 68.9152Z" fill="#6BB5FB"/>
<path d="M59.2393 69.3006L59.2254 72.0302L58.5576 71.6446L58.5716 68.915L59.2393 69.3006Z" fill="#4466FB"/>
<path d="M60.6019 70.0875L60.9827 69.8662L60.9687 72.5958L60.5879 72.8171L60.6019 70.0875Z" fill="#3955D1"/>
<path d="M59.9341 69.7018L60.3149 69.4805L60.9827 69.866L60.6018 70.0873L59.9341 69.7018Z" fill="#6BB5FB"/>
<path d="M60.6016 70.0872L60.5877 72.8168L59.9199 72.4312L59.9339 69.7017L60.6016 70.0872Z" fill="#4466FB"/>
<path d="M61.9642 70.8742L62.345 70.6528L62.331 73.3824L61.9502 73.6038L61.9642 70.8742Z" fill="#3955D1"/>
<path d="M61.2964 70.4884L61.6772 70.2671L62.345 70.6526L61.9641 70.8739L61.2964 70.4884Z" fill="#6BB5FB"/>
<path d="M61.9639 70.8738L61.95 73.6034L61.2822 73.2179L61.2962 70.4883L61.9639 70.8738Z" fill="#4466FB"/>
<path d="M53.7898 66.1544L54.1707 65.9331L54.1567 68.6627L53.7759 68.884L53.7898 66.1544Z" fill="#3955D1"/>
<path d="M53.1221 65.7687L53.5029 65.5474L54.1707 65.9329L53.7898 66.1542L53.1221 65.7687Z" fill="#6BB5FB"/>
<path d="M53.7896 66.1541L53.7757 68.8837L53.1079 68.4982L53.1219 65.7686L53.7896 66.1541Z" fill="#4466FB"/>
<path d="M63.1461 75.9513L63.1328 80.1944L52.5923 74.1088L52.6056 69.8657L63.1461 75.9513Z" fill="#2E4277"/>
<path d="M55.1526 72.5856L55.5335 72.3643L55.5195 75.0939L55.1387 75.3152L55.1526 72.5856Z" fill="#3955D1"/>
<path d="M54.4849 72.1998L54.8657 71.9785L55.5335 72.364L55.1526 72.5854L54.4849 72.1998Z" fill="#6BB5FB"/>
<path d="M55.1524 72.5852L55.1385 75.3148L54.4707 74.9293L54.4847 72.1997L55.1524 72.5852Z" fill="#4466FB"/>
<path d="M56.5144 73.3722L56.8953 73.1509L56.8813 75.8805L56.5005 76.1018L56.5144 73.3722Z" fill="#3955D1"/>
<path d="M55.8467 72.9865L56.2275 72.7651L56.8953 73.1507L56.5144 73.372L55.8467 72.9865Z" fill="#6BB5FB"/>
<path d="M56.5142 73.3719L56.5003 76.1015L55.8325 75.7159L55.8465 72.9863L56.5142 73.3719Z" fill="#4466FB"/>
<path d="M57.8772 74.1588L58.2581 73.9375L58.2441 76.6671L57.8633 76.8884L57.8772 74.1588Z" fill="#3955D1"/>
<path d="M57.2095 73.7731L57.5903 73.5518L58.2581 73.9373L57.8772 74.1586L57.2095 73.7731Z" fill="#6BB5FB"/>
<path d="M57.877 74.1585L57.8631 76.8881L57.1953 76.5025L57.2093 73.7729L57.877 74.1585Z" fill="#4466FB"/>
<path d="M59.2395 74.9455L59.6204 74.7241L59.6064 77.4537L59.2256 77.675L59.2395 74.9455Z" fill="#3955D1"/>
<path d="M58.5718 74.5597L58.9526 74.3384L59.6204 74.7239L59.2395 74.9452L58.5718 74.5597Z" fill="#6BB5FB"/>
<path d="M59.2393 74.9451L59.2254 77.6747L58.5576 77.2892L58.5716 74.5596L59.2393 74.9451Z" fill="#4466FB"/>
<path d="M60.6019 75.7321L60.9827 75.5107L60.9687 78.2403L60.5879 78.4617L60.6019 75.7321Z" fill="#3955D1"/>
<path d="M59.9341 75.3463L60.3149 75.125L60.9827 75.5105L60.6018 75.7318L59.9341 75.3463Z" fill="#6BB5FB"/>
<path d="M60.6016 75.7317L60.5877 78.4613L59.9199 78.0758L59.9339 75.3462L60.6016 75.7317Z" fill="#4466FB"/>
<path d="M61.9642 76.5187L62.345 76.2974L62.331 79.027L61.9502 79.2483L61.9642 76.5187Z" fill="#3955D1"/>
<path d="M61.2964 76.133L61.6772 75.9116L62.345 76.2972L61.9641 76.5185L61.2964 76.133Z" fill="#6BB5FB"/>
<path d="M61.9639 76.5183L61.95 79.2479L61.2822 78.8624L61.2962 76.1328L61.9639 76.5183Z" fill="#4466FB"/>
<path d="M53.7898 71.799L54.1707 71.5776L54.1567 74.3072L53.7759 74.5286L53.7898 71.799Z" fill="#3955D1"/>
<path d="M53.1221 71.4132L53.5029 71.1919L54.1707 71.5774L53.7898 71.7987L53.1221 71.4132Z" fill="#6BB5FB"/>
<path d="M53.7896 71.7986L53.7757 74.5282L53.1079 74.1427L53.1219 71.4131L53.7896 71.7986Z" fill="#4466FB"/>
<path d="M63.1461 81.5958L63.1328 85.8389L52.5923 79.7534L52.6056 75.5103L63.1461 81.5958Z" fill="#2E4277"/>
<path d="M55.1526 78.2301L55.5335 78.0088L55.5195 80.7384L55.1387 80.9597L55.1526 78.2301Z" fill="#3955D1"/>
<path d="M54.4849 77.8444L54.8657 77.623L55.5335 78.0086L55.1526 78.2299L54.4849 77.8444Z" fill="#6BB5FB"/>
<path d="M55.1524 78.2298L55.1385 80.9594L54.4707 80.5738L54.4847 77.8442L55.1524 78.2298Z" fill="#4466FB"/>
<path d="M56.5144 79.0167L56.8953 78.7954L56.8813 81.525L56.5005 81.7463L56.5144 79.0167Z" fill="#3955D1"/>
<path d="M55.8467 78.631L56.2275 78.4097L56.8953 78.7952L56.5144 79.0165L55.8467 78.631Z" fill="#6BB5FB"/>
<path d="M56.5142 79.0164L56.5003 81.746L55.8325 81.3605L55.8465 78.6309L56.5142 79.0164Z" fill="#4466FB"/>
<path d="M57.8772 79.8033L58.2581 79.582L58.2441 82.3116L57.8633 82.5329L57.8772 79.8033Z" fill="#3955D1"/>
<path d="M57.2095 79.4176L57.5903 79.1963L58.2581 79.5818L57.8772 79.8031L57.2095 79.4176Z" fill="#6BB5FB"/>
<path d="M57.877 79.803L57.8631 82.5326L57.1953 82.1471L57.2093 79.4175L57.877 79.803Z" fill="#4466FB"/>
<path d="M59.2395 80.59L59.6204 80.3687L59.6064 83.0982L59.2256 83.3196L59.2395 80.59Z" fill="#3955D1"/>
<path d="M58.5718 80.2042L58.9526 79.9829L59.6204 80.3684L59.2395 80.5897L58.5718 80.2042Z" fill="#6BB5FB"/>
<path d="M59.2393 80.5896L59.2254 83.3192L58.5576 82.9337L58.5716 80.2041L59.2393 80.5896Z" fill="#4466FB"/>
<path d="M60.6019 81.3766L60.9827 81.1553L60.9687 83.8849L60.5879 84.1062L60.6019 81.3766Z" fill="#3955D1"/>
<path d="M59.9341 80.9909L60.3149 80.7695L60.9827 81.1551L60.6018 81.3764L59.9341 80.9909Z" fill="#6BB5FB"/>
<path d="M60.6016 81.3763L60.5877 84.1058L59.9199 83.7203L59.9339 80.9907L60.6016 81.3763Z" fill="#4466FB"/>
<path d="M61.9642 82.1632L62.345 81.9419L62.331 84.6715L61.9502 84.8928L61.9642 82.1632Z" fill="#3955D1"/>
<path d="M61.2964 81.7775L61.6772 81.5562L62.345 81.9417L61.9641 82.163L61.2964 81.7775Z" fill="#6BB5FB"/>
<path d="M61.9639 82.1629L61.95 84.8925L61.2822 84.5069L61.2962 81.7773L61.9639 82.1629Z" fill="#4466FB"/>
<path d="M53.7898 77.4435L54.1707 77.2222L54.1567 79.9517L53.7759 80.1731L53.7898 77.4435Z" fill="#3955D1"/>
<path d="M53.1221 77.0577L53.5029 76.8364L54.1707 77.222L53.7898 77.4433L53.1221 77.0577Z" fill="#6BB5FB"/>
<path d="M53.7896 77.4431L53.7757 80.1727L53.1079 79.7872L53.1219 77.0576L53.7896 77.4431Z" fill="#4466FB"/>
<path d="M63.1461 87.2404L63.1328 91.4835L52.5923 85.3979L52.6056 81.1548L63.1461 87.2404Z" fill="#2E4277"/>
<path d="M55.1526 83.8746L55.5335 83.6533L55.5195 86.3829L55.1387 86.6042L55.1526 83.8746Z" fill="#3955D1"/>
<path d="M54.4849 83.4889L54.8657 83.2676L55.5335 83.6531L55.1526 83.8744L54.4849 83.4889Z" fill="#6BB5FB"/>
<path d="M55.1524 83.8743L55.1385 86.6039L54.4707 86.2184L54.4847 83.4888L55.1524 83.8743Z" fill="#4466FB"/>
<path d="M56.5144 84.6613L56.8953 84.4399L56.8813 87.1695L56.5005 87.3909L56.5144 84.6613Z" fill="#3955D1"/>
<path d="M55.8467 84.2755L56.2275 84.0542L56.8953 84.4397L56.5144 84.661L55.8467 84.2755Z" fill="#6BB5FB"/>
<path d="M56.5142 84.6609L56.5003 87.3905L55.8325 87.005L55.8465 84.2754L56.5142 84.6609Z" fill="#4466FB"/>
<path d="M57.8772 85.4479L58.2581 85.2266L58.2441 87.9562L57.8633 88.1775L57.8772 85.4479Z" fill="#3955D1"/>
<path d="M57.2095 85.0621L57.5903 84.8408L58.2581 85.2263L57.8772 85.4477L57.2095 85.0621Z" fill="#6BB5FB"/>
<path d="M57.877 85.4475L57.8631 88.1771L57.1953 87.7916L57.2093 85.062L57.877 85.4475Z" fill="#4466FB"/>
<path d="M59.2395 86.2345L59.6204 86.0132L59.6064 88.7428L59.2256 88.9641L59.2395 86.2345Z" fill="#3955D1"/>
<path d="M58.5718 85.8488L58.9526 85.6274L59.6204 86.013L59.2395 86.2343L58.5718 85.8488Z" fill="#6BB5FB"/>
<path d="M59.2393 86.2342L59.2254 88.9638L58.5576 88.5782L58.5716 85.8486L59.2393 86.2342Z" fill="#4466FB"/>
<path d="M60.6019 87.0211L60.9827 86.7998L60.9687 89.5294L60.5879 89.7507L60.6019 87.0211Z" fill="#3955D1"/>
<path d="M59.9341 86.6354L60.3149 86.4141L60.9827 86.7996L60.6018 87.0209L59.9341 86.6354Z" fill="#6BB5FB"/>
<path d="M60.6016 87.0208L60.5877 89.7504L59.9199 89.3649L59.9339 86.6353L60.6016 87.0208Z" fill="#4466FB"/>
<path d="M61.9642 87.8078L62.345 87.5864L62.331 90.316L61.9502 90.5373L61.9642 87.8078Z" fill="#3955D1"/>
<path d="M61.2964 87.422L61.6772 87.2007L62.345 87.5862L61.9641 87.8075L61.2964 87.422Z" fill="#6BB5FB"/>
<path d="M61.9639 87.8074L61.95 90.537L61.2822 90.1515L61.2962 87.4219L61.9639 87.8074Z" fill="#4466FB"/>
<path d="M53.7898 83.088L54.1707 82.8667L54.1567 85.5963L53.7759 85.8176L53.7898 83.088Z" fill="#3955D1"/>
<path d="M53.1221 82.7023L53.5029 82.481L54.1707 82.8665L53.7898 83.0878L53.1221 82.7023Z" fill="#6BB5FB"/>
<path d="M53.7896 83.0877L53.7757 85.8173L53.1079 85.4317L53.1219 82.7021L53.7896 83.0877Z" fill="#4466FB"/>
<path d="M77.333 86.1054C77.2767 86.1379 77.2303 86.2183 77.2305 86.283C77.2307 86.3491 77.2773 86.3757 77.3337 86.3432L79.8365 84.8982C79.8929 84.8656 79.9392 84.7853 79.9391 84.7192C79.9389 84.6545 79.8922 84.6278 79.8359 84.6604L77.333 86.1054Z" fill="#384E85"/>
<path d="M77.332 85.5536C77.2757 85.5862 77.2293 85.6665 77.2295 85.7326C77.2297 85.7973 77.2764 85.8239 77.3327 85.7914L79.8356 84.3464C79.8919 84.3138 79.9383 84.2335 79.9381 84.1688C79.9379 84.1027 79.8912 84.0761 79.8349 84.1086L77.332 85.5536Z" fill="#384E85"/>
<path d="M77.3305 85.0036C77.2742 85.0361 77.2278 85.1151 77.228 85.1812C77.2282 85.2459 77.2749 85.2725 77.3312 85.24L79.8341 83.795C79.8904 83.7624 79.9368 83.6821 79.9366 83.6174C79.9364 83.5512 79.8898 83.5261 79.8334 83.5586L77.3305 85.0036Z" fill="#384E85"/>
<path d="M77.3286 84.4524C77.2723 84.4849 77.2259 84.5638 77.2261 84.6299C77.2263 84.6947 77.2729 84.7213 77.3293 84.6887L79.8322 83.2437C79.8885 83.2112 79.9349 83.1308 79.9347 83.0661C79.9345 83 79.8878 82.9748 79.8315 83.0073L77.3286 84.4524Z" fill="#384E85"/>
<path d="M77.3257 83.3488C77.2693 83.3814 77.223 83.4603 77.2231 83.5264C77.2233 83.5911 77.27 83.6177 77.3263 83.5852L79.8292 82.1402C79.8855 82.1077 79.9319 82.0273 79.9317 81.9626C79.9316 81.8965 79.8849 81.8713 79.8285 81.9038L77.3257 83.3488Z" fill="#384E85"/>
<path d="M77.3271 83.9006C77.2708 83.9331 77.2244 84.012 77.2246 84.0782C77.2248 84.1429 77.2715 84.1695 77.3278 84.137L79.8307 82.6919C79.887 82.6594 79.9334 82.5791 79.9332 82.5144C79.933 82.4482 79.8863 82.423 79.83 82.4555L77.3271 83.9006Z" fill="#384E85"/>
<path d="M77.333 81.0849C77.2767 81.1174 77.2303 81.1978 77.2305 81.2625C77.2307 81.3286 77.2773 81.3552 77.3337 81.3227L79.8365 79.8776C79.8929 79.8451 79.9392 79.7648 79.9391 79.6987C79.9389 79.6339 79.8922 79.6073 79.8359 79.6399L77.333 81.0849Z" fill="#384E85"/>
<path d="M77.332 80.5336C77.2757 80.5661 77.2293 80.6464 77.2295 80.7126C77.2297 80.7773 77.2764 80.8039 77.3327 80.7714L79.8356 79.3263C79.8919 79.2938 79.9383 79.2135 79.9381 79.1488C79.9379 79.0826 79.8912 79.056 79.8349 79.0886L77.332 80.5336Z" fill="#384E85"/>
<path d="M77.3305 79.9831C77.2742 80.0156 77.2278 80.0946 77.228 80.1607C77.2282 80.2254 77.2749 80.252 77.3312 80.2195L79.8341 78.7745C79.8904 78.7419 79.9368 78.6616 79.9366 78.5969C79.9364 78.5307 79.8898 78.5055 79.8334 78.5381L77.3305 79.9831Z" fill="#384E85"/>
<path d="M77.3286 79.4318C77.2723 79.4644 77.2259 79.5433 77.2261 79.6094C77.2263 79.6741 77.2729 79.7007 77.3293 79.6682L79.8322 78.2232C79.8885 78.1907 79.9349 78.1103 79.9347 78.0456C79.9345 77.9795 79.8878 77.9543 79.8315 77.9868L77.3286 79.4318Z" fill="#384E85"/>
<path d="M77.3257 78.3288C77.2693 78.3613 77.223 78.4403 77.2231 78.5064C77.2233 78.5711 77.27 78.5977 77.3263 78.5652L79.8292 77.1202C79.8855 77.0876 79.9319 77.0073 79.9317 76.9426C79.9316 76.8765 79.8849 76.8512 79.8285 76.8838L77.3257 78.3288Z" fill="#384E85"/>
<path d="M77.3271 78.8801C77.2708 78.9126 77.2244 78.9915 77.2246 79.0577C77.2248 79.1224 77.2715 79.149 77.3278 79.1165L79.8307 77.6714C79.887 77.6389 79.9334 77.5586 79.9332 77.4938C79.933 77.4277 79.8863 77.4025 79.83 77.435L77.3271 78.8801Z" fill="#384E85"/>
<path d="M77.333 76.0644C77.2767 76.0969 77.2303 76.1773 77.2305 76.242C77.2307 76.3081 77.2773 76.3347 77.3337 76.3022L79.8365 74.8571C79.8929 74.8246 79.9392 74.7443 79.9391 74.6782C79.9389 74.6134 79.8922 74.5868 79.8359 74.6194L77.333 76.0644Z" fill="#384E85"/>
<path d="M77.332 75.5131C77.2757 75.5456 77.2293 75.6259 77.2295 75.6921C77.2297 75.7568 77.2764 75.7834 77.3327 75.7509L79.8356 74.3058C79.8919 74.2733 79.9383 74.193 79.9381 74.1283C79.9379 74.0621 79.8912 74.0355 79.8349 74.0681L77.332 75.5131Z" fill="#384E85"/>
<path d="M77.3305 74.9626C77.2742 74.9951 77.2278 75.0741 77.228 75.1402C77.2282 75.2049 77.2749 75.2315 77.3312 75.199L79.8341 73.7539C79.8904 73.7214 79.9368 73.6411 79.9366 73.5764C79.9364 73.5102 79.8898 73.485 79.8334 73.5176L77.3305 74.9626Z" fill="#384E85"/>
<path d="M77.3286 74.4113C77.2723 74.4439 77.2259 74.5228 77.2261 74.5889C77.2263 74.6536 77.2729 74.6802 77.3293 74.6477L79.8322 73.2027C79.8885 73.1702 79.9349 73.0898 79.9347 73.0251C79.9345 72.959 79.8878 72.9338 79.8315 72.9663L77.3286 74.4113Z" fill="#384E85"/>
<path d="M77.3257 73.3083C77.2693 73.3408 77.223 73.4197 77.2231 73.4859C77.2233 73.5506 77.27 73.5772 77.3263 73.5447L79.8292 72.0996C79.8855 72.0671 79.9319 71.9868 79.9317 71.9221C79.9316 71.8559 79.8849 71.8307 79.8285 71.8633L77.3257 73.3083Z" fill="#384E85"/>
<path d="M77.3271 73.8596C77.2708 73.8921 77.2244 73.971 77.2246 74.0372C77.2248 74.1019 77.2715 74.1285 77.3278 74.096L79.8307 72.6509C79.887 72.6184 79.9334 72.5381 79.9332 72.4733C79.933 72.4072 79.8863 72.382 79.83 72.4145L77.3271 73.8596Z" fill="#384E85"/>
<path d="M77.333 71.0439C77.2767 71.0764 77.2303 71.1568 77.2305 71.2215C77.2307 71.2876 77.2773 71.3142 77.3337 71.2817L79.8365 69.8366C79.8929 69.8041 79.9392 69.7238 79.9391 69.6577C79.9389 69.5929 79.8922 69.5663 79.8359 69.5988L77.333 71.0439Z" fill="#384E85"/>
<path d="M77.332 70.4926C77.2757 70.5251 77.2293 70.6054 77.2295 70.6716C77.2297 70.7363 77.2764 70.7629 77.3327 70.7304L79.8356 69.2853C79.8919 69.2528 79.9383 69.1725 79.9381 69.1078C79.9379 69.0416 79.8912 69.015 79.8349 69.0475L77.332 70.4926Z" fill="#384E85"/>
<path d="M77.3305 69.9426C77.2742 69.9751 77.2278 70.054 77.228 70.1202C77.2282 70.1849 77.2749 70.2115 77.3312 70.179L79.8341 68.7339C79.8904 68.7014 79.9368 68.6211 79.9366 68.5563C79.9364 68.4902 79.8898 68.465 79.8334 68.4975L77.3305 69.9426Z" fill="#384E85"/>
<path d="M77.3286 69.3908C77.2723 69.4234 77.2259 69.5023 77.2261 69.5684C77.2263 69.6331 77.2729 69.6597 77.3293 69.6272L79.8322 68.1822C79.8885 68.1496 79.9349 68.0693 79.9347 68.0046C79.9345 67.9385 79.8878 67.9133 79.8315 67.9458L77.3286 69.3908Z" fill="#384E85"/>
<path d="M77.3257 68.2878C77.2693 68.3203 77.223 68.3992 77.2231 68.4654C77.2233 68.5301 77.27 68.5567 77.3263 68.5242L79.8292 67.0791C79.8855 67.0466 79.9319 66.9663 79.9317 66.9016C79.9316 66.8354 79.8849 66.8102 79.8285 66.8428L77.3257 68.2878Z" fill="#384E85"/>
<path d="M77.3271 68.8391C77.2708 68.8716 77.2244 68.9505 77.2246 69.0166C77.2248 69.0814 77.2715 69.108 77.3278 69.0755L79.8307 67.6304C79.887 67.5979 79.9334 67.5175 79.9332 67.4528C79.933 67.3867 79.8863 67.3615 79.83 67.394L77.3271 68.8391Z" fill="#384E85"/>
<path d="M77.333 66.0234C77.2767 66.0559 77.2303 66.1362 77.2305 66.201C77.2307 66.2671 77.2773 66.2937 77.3337 66.2612L79.8365 64.8161C79.8929 64.7836 79.9392 64.7033 79.9391 64.6371C79.9389 64.5724 79.8922 64.5458 79.8359 64.5783L77.333 66.0234Z" fill="#384E85"/>
<path d="M77.332 65.4721C77.2757 65.5046 77.2293 65.5849 77.2295 65.651C77.2297 65.7158 77.2764 65.7424 77.3327 65.7099L79.8356 64.2648C79.8919 64.2323 79.9383 64.152 79.9381 64.0872C79.9379 64.0211 79.8912 63.9945 79.8349 64.027L77.332 65.4721Z" fill="#384E85"/>
<path d="M77.3305 64.9221C77.2742 64.9546 77.2278 65.0335 77.228 65.0997C77.2282 65.1644 77.2749 65.191 77.3312 65.1585L79.8341 63.7134C79.8904 63.6809 79.9368 63.6006 79.9366 63.5358C79.9364 63.4697 79.8898 63.4445 79.8334 63.477L77.3305 64.9221Z" fill="#384E85"/>
<path d="M77.3286 64.3703C77.2723 64.4028 77.2259 64.4818 77.2261 64.5479C77.2263 64.6126 77.2729 64.6392 77.3293 64.6067L79.8322 63.1617C79.8885 63.1291 79.9349 63.0488 79.9347 62.9841C79.9345 62.9179 79.8878 62.8928 79.8315 62.9253L77.3286 64.3703Z" fill="#384E85"/>
<path d="M77.3257 63.2673C77.2693 63.2998 77.223 63.3787 77.2231 63.4449C77.2233 63.5096 77.27 63.5362 77.3263 63.5037L79.8292 62.0586C79.8855 62.0261 79.9319 61.9458 79.9317 61.8811C79.9316 61.8149 79.8849 61.7897 79.8285 61.8222L77.3257 63.2673Z" fill="#384E85"/>
<path d="M77.3271 63.8191C77.2708 63.8516 77.2244 63.9305 77.2246 63.9966C77.2248 64.0613 77.2715 64.088 77.3278 64.0554L79.8307 62.6104C79.887 62.5779 79.9334 62.4975 79.9332 62.4328C79.933 62.3667 79.8863 62.3415 79.83 62.374L77.3271 63.8191Z" fill="#384E85"/>
<path d="M77.333 61.0034C77.2767 61.0359 77.2303 61.1162 77.2305 61.181C77.2307 61.2471 77.2773 61.2737 77.3337 61.2412L79.8365 59.7961C79.8929 59.7636 79.9392 59.6833 79.9391 59.6171C79.9389 59.5524 79.8922 59.5258 79.8359 59.5583L77.333 61.0034Z" fill="#384E85"/>
<path d="M77.332 60.4516C77.2757 60.4841 77.2293 60.5644 77.2295 60.6305C77.2297 60.6953 77.2764 60.7219 77.3327 60.6894L79.8356 59.2443C79.8919 59.2118 79.9383 59.1315 79.9381 59.0667C79.9379 59.0006 79.8912 58.974 79.8349 59.0065L77.332 60.4516Z" fill="#384E85"/>
<path d="M77.3305 59.9016C77.2742 59.9341 77.2278 60.013 77.228 60.0792C77.2282 60.1439 77.2749 60.1705 77.3312 60.138L79.8341 58.6929C79.8904 58.6604 79.9368 58.5801 79.9366 58.5153C79.9364 58.4492 79.8898 58.424 79.8334 58.4565L77.3305 59.9016Z" fill="#384E85"/>
<path d="M77.3286 59.3498C77.2723 59.3823 77.2259 59.4613 77.2261 59.5274C77.2263 59.5921 77.2729 59.6187 77.3293 59.5862L79.8322 58.1412C79.8885 58.1086 79.9349 58.0283 79.9347 57.9636C79.9345 57.8974 79.8878 57.8722 79.8315 57.9048L77.3286 59.3498Z" fill="#384E85"/>
<path d="M77.3257 58.2468C77.2693 58.2793 77.223 58.3582 77.2231 58.4243C77.2233 58.4891 77.27 58.5157 77.3263 58.4832L79.8292 57.0381C79.8855 57.0056 79.9319 56.9253 79.9317 56.8605C79.9316 56.7944 79.8849 56.7692 79.8285 56.8017L77.3257 58.2468Z" fill="#384E85"/>
<path d="M77.3271 58.7985C77.2708 58.8311 77.2244 58.91 77.2246 58.9761C77.2248 59.0408 77.2715 59.0674 77.3278 59.0349L79.8307 57.5899C79.887 57.5574 79.9334 57.477 79.9332 57.4123C79.933 57.3462 79.8863 57.321 79.83 57.3535L77.3271 58.7985Z" fill="#384E85"/>
<path d="M77.333 55.9829C77.2767 56.0154 77.2303 56.0957 77.2305 56.1604C77.2307 56.2266 77.2773 56.2532 77.3337 56.2206L79.8365 54.7756C79.8929 54.7431 79.9392 54.6627 79.9391 54.5966C79.9389 54.5319 79.8922 54.5053 79.8359 54.5378L77.333 55.9829Z" fill="#384E85"/>
<path d="M77.332 55.431C77.2757 55.4636 77.2293 55.5439 77.2295 55.61C77.2297 55.6747 77.2764 55.7014 77.3327 55.6688L79.8356 54.2238C79.8919 54.1913 79.9383 54.1109 79.9381 54.0462C79.9379 53.9801 79.8912 53.9535 79.8349 53.986L77.332 55.431Z" fill="#384E85"/>
<path d="M77.3305 54.8811C77.2742 54.9136 77.2278 54.9925 77.228 55.0586C77.2282 55.1234 77.2749 55.15 77.3312 55.1174L79.8341 53.6724C79.8904 53.6399 79.9368 53.5595 79.9366 53.4948C79.9364 53.4287 79.8898 53.4035 79.8334 53.436L77.3305 54.8811Z" fill="#384E85"/>
<path d="M77.3286 54.3293C77.2723 54.3618 77.2259 54.4407 77.2261 54.5069C77.2263 54.5716 77.2729 54.5982 77.3293 54.5657L79.8322 53.1206C79.8885 53.0881 79.9349 53.0078 79.9347 52.9431C79.9345 52.8769 79.8878 52.8517 79.8315 52.8843L77.3286 54.3293Z" fill="#384E85"/>
<path d="M77.3257 53.2263C77.2693 53.2588 77.223 53.3377 77.2231 53.4038C77.2233 53.4686 77.27 53.4952 77.3263 53.4627L79.8292 52.0176C79.8855 51.9851 79.9319 51.9048 79.9317 51.84C79.9316 51.7739 79.8849 51.7487 79.8285 51.7812L77.3257 53.2263Z" fill="#384E85"/>
<path d="M77.3271 53.778C77.2708 53.8106 77.2244 53.8895 77.2246 53.9556C77.2248 54.0203 77.2715 54.0469 77.3278 54.0144L79.8307 52.5694C79.887 52.5368 79.9334 52.4565 79.9332 52.3918C79.933 52.3257 79.8863 52.3005 79.83 52.333L77.3271 53.778Z" fill="#384E85"/>
<path d="M63.5442 58.014L65.0571 57.1348L65.0373 96.2949L63.5244 97.1741L63.5442 58.014Z" fill="#1B2A4F"/>
<path d="M47.916 48.991L49.4289 48.1118L65.057 57.1347L63.5441 58.0139L47.916 48.991Z" fill="#1B2A4F"/>
<path d="M47.9206 48.9951L47.8984 88.1533L63.5216 97.1719L63.5439 58.0137L47.9206 48.9951ZM61.716 92.3537L49.5143 85.3097L49.5249 50.972L61.7375 58.0161L61.716 92.3537Z" fill="#2E4277"/>
<path opacity="0.3" d="M49.5295 50.9697L49.5127 86.7909L61.714 93.8358L61.7317 58.0138L49.5295 50.9697Z" fill="#4466FB"/>
<path opacity="0.3" d="M52.3874 88.4505L61.7189 83.2421L61.7196 82.0234L51.1401 87.7304L52.3874 88.4505Z" fill="#4466FB"/>
<path opacity="0.3" d="M49.5127 86.7908L49.7538 86.9299L61.7201 80.669L61.7217 77.5864L49.5141 83.9438L49.5127 86.7908Z" fill="#4466FB"/>
<path opacity="0.3" d="M61.7259 69.3032L49.5182 74.1807L49.5176 75.3993L61.7253 70.5219L61.7259 69.3032Z" fill="#4466FB"/>
<path opacity="0.3" d="M61.728 64.8667L49.5201 69.7442L49.5186 72.8267L61.7264 67.9493L61.728 64.8667Z" fill="#4466FB"/>
<path opacity="0.3" d="M60.2671 57.1685L49.524 61.4606L49.5234 62.6793L61.5144 57.8884L60.2671 57.1685Z" fill="#4466FB"/>
<path opacity="0.3" d="M55.7253 54.5469L49.5259 57.0237L49.5244 60.1063L58.8804 56.3682L55.7253 54.5469Z" fill="#4466FB"/>
<path d="M63.1715 77.3467L62.4854 77.7412C62.4365 77.7705 62.3941 77.7721 62.3615 77.7542L61.9622 77.5228L61.9639 77.8438C61.9655 78.0068 62.0225 78.1225 62.1171 78.178L61.5417 77.8438C61.4488 77.7884 61.3902 77.6743 61.3902 77.5097L61.3853 74.7931C61.3836 74.4623 61.6167 74.0597 61.9035 73.8951L62.5897 73.499L63.1634 73.8315L62.4789 74.2276C62.1904 74.3938 61.9589 74.7964 61.9589 75.1272L61.9622 77.3793L62.5962 77.0126L63.1715 77.3467Z" fill="#B7C5FD"/>
<path d="M63.1638 73.8325L63.165 74.2307L62.4792 74.6266C62.3835 74.6819 62.3067 74.816 62.307 74.926L62.312 77.6434C62.3123 77.7534 62.3895 77.7974 62.4853 77.7421L63.171 77.3462L63.1722 77.7456L62.4864 78.1415C62.1992 78.3073 61.9654 78.1729 61.9644 77.844L61.9595 75.1267C61.9585 74.7967 62.1909 74.3943 62.4781 74.2285L63.1638 73.8325Z" fill="#798FFE"/>
<path d="M101.06 76.636L117.094 68.5757L117.074 107.736L101.041 117.054L101.06 76.636Z" fill="#1B2A4F"/>
<path d="M85.4321 68.8705L101.466 59.5527L117.094 68.5757L101.06 77.8935L85.4321 68.8705Z" fill="#384E85"/>
<path d="M101.061 77.8936L101.041 117.054L85.4126 108.031L85.4323 68.8706L101.061 77.8936Z" fill="#2E4277"/>
<path d="M87.32 71.0516L86.3764 70.5068L86.3579 107.485L100.097 115.418L100.098 114.238L87.3025 106.85L87.32 71.0516Z" fill="#384E85"/>
<path d="M87.3198 71.0518L87.3022 106.85L100.098 114.238L100.116 78.4386L87.3198 71.0518Z" fill="#1B2A4F"/>
<path d="M99.1496 79.777L99.1363 84.0202L88.5957 77.9346L88.609 73.6914L99.1496 79.777Z" fill="#2E4277"/>
<path d="M91.1561 76.4113L91.5369 76.1899L91.5229 78.9196L91.1421 79.1409L91.1561 76.4113Z" fill="#3955D1"/>
<path d="M90.4883 76.0255L90.8691 75.8042L91.5369 76.1897L91.156 76.411L90.4883 76.0255Z" fill="#6BB5FB"/>
<path d="M91.1558 76.4109L91.1419 79.1405L90.4741 78.755L90.4881 76.0254L91.1558 76.4109Z" fill="#4466FB"/>
<path d="M92.5179 77.1979L92.8987 76.9766L92.8847 79.7062L92.5039 79.9275L92.5179 77.1979Z" fill="#3955D1"/>
<path d="M91.8501 76.8121L92.2309 76.5908L92.8987 76.9764L92.5179 77.1977L91.8501 76.8121Z" fill="#6BB5FB"/>
<path d="M92.5177 77.1975L92.5037 79.9272L91.8359 79.5416L91.8499 76.812L92.5177 77.1975Z" fill="#4466FB"/>
<path d="M93.8807 77.9845L94.2615 77.7632L94.2475 80.4928L93.8667 80.7141L93.8807 77.9845Z" fill="#3955D1"/>
<path d="M93.2129 77.5988L93.5937 77.3774L94.2615 77.763L93.8807 77.9843L93.2129 77.5988Z" fill="#6BB5FB"/>
<path d="M93.8805 77.9842L93.8665 80.7138L93.1987 80.3283L93.2127 77.5986L93.8805 77.9842Z" fill="#4466FB"/>
<path d="M95.243 78.7711L95.6238 78.5498L95.6099 81.2794L95.229 81.5007L95.243 78.7711Z" fill="#3955D1"/>
<path d="M94.5752 78.3854L94.956 78.1641L95.6238 78.5496L95.243 78.7709L94.5752 78.3854Z" fill="#6BB5FB"/>
<path d="M95.2428 78.7708L95.2288 81.5004L94.561 81.1149L94.575 78.3853L95.2428 78.7708Z" fill="#4466FB"/>
<path d="M96.6058 79.5577L96.9866 79.3364L96.9726 82.066L96.5918 82.2874L96.6058 79.5577Z" fill="#3955D1"/>
<path d="M95.938 79.172L96.3188 78.9507L96.9866 79.3362L96.6057 79.5575L95.938 79.172Z" fill="#6BB5FB"/>
<path d="M96.6055 79.5574L96.5916 82.287L95.9238 81.9015L95.9378 79.1719L96.6055 79.5574Z" fill="#4466FB"/>
<path d="M97.9676 80.3444L98.3484 80.123L98.3345 82.8527L97.9536 83.074L97.9676 80.3444Z" fill="#3955D1"/>
<path d="M97.2998 79.9586L97.6806 79.7373L98.3484 80.1228L97.9676 80.3442L97.2998 79.9586Z" fill="#6BB5FB"/>
<path d="M97.9674 80.344L97.9534 83.0736L97.2856 82.6881L97.2996 79.9585L97.9674 80.344Z" fill="#4466FB"/>
<path d="M89.7933 75.6247L90.1741 75.4033L90.1602 78.1329L89.7793 78.3543L89.7933 75.6247Z" fill="#3955D1"/>
<path d="M89.1255 75.2389L89.5063 75.0176L90.1741 75.4031L89.7932 75.6244L89.1255 75.2389Z" fill="#6BB5FB"/>
<path d="M89.7931 75.6243L89.7791 78.3539L89.1113 77.9684L89.1253 75.2388L89.7931 75.6243Z" fill="#4466FB"/>
<path d="M99.1496 85.4215L99.1363 89.6647L88.5957 83.5791L88.609 79.3359L99.1496 85.4215Z" fill="#2E4277"/>
<path d="M91.1561 82.0558L91.5369 81.8345L91.5229 84.5641L91.1421 84.7854L91.1561 82.0558Z" fill="#3955D1"/>
<path d="M90.4883 81.67L90.8691 81.4487L91.5369 81.8343L91.156 82.0556L90.4883 81.67Z" fill="#6BB5FB"/>
<path d="M91.1558 82.0555L91.1419 84.7851L90.4741 84.3995L90.4881 81.6699L91.1558 82.0555Z" fill="#4466FB"/>
<path d="M92.5179 82.8424L92.8987 82.6211L92.8847 85.3507L92.5039 85.572L92.5179 82.8424Z" fill="#3955D1"/>
<path d="M91.8501 82.4567L92.2309 82.2354L92.8987 82.6209L92.5179 82.8422L91.8501 82.4567Z" fill="#6BB5FB"/>
<path d="M92.5177 82.8421L92.5037 85.5717L91.8359 85.1862L91.8499 82.4565L92.5177 82.8421Z" fill="#4466FB"/>
<path d="M93.8807 83.629L94.2615 83.4077L94.2475 86.1373L93.8667 86.3587L93.8807 83.629Z" fill="#3955D1"/>
<path d="M93.2129 83.2433L93.5937 83.022L94.2615 83.4075L93.8807 83.6288L93.2129 83.2433Z" fill="#6BB5FB"/>
<path d="M93.8805 83.6287L93.8665 86.3583L93.1987 85.9728L93.2127 83.2432L93.8805 83.6287Z" fill="#4466FB"/>
<path d="M95.243 84.4157L95.6238 84.1943L95.6099 86.924L95.229 87.1453L95.243 84.4157Z" fill="#3955D1"/>
<path d="M94.5752 84.0299L94.956 83.8086L95.6238 84.1941L95.243 84.4155L94.5752 84.0299Z" fill="#6BB5FB"/>
<path d="M95.2428 84.4153L95.2288 87.1449L94.561 86.7594L94.575 84.0298L95.2428 84.4153Z" fill="#4466FB"/>
<path d="M96.6058 85.2023L96.9866 84.981L96.9726 87.7106L96.5918 87.9319L96.6058 85.2023Z" fill="#3955D1"/>
<path d="M95.938 84.8165L96.3188 84.5952L96.9866 84.9807L96.6057 85.2021L95.938 84.8165Z" fill="#6BB5FB"/>
<path d="M96.6055 85.2019L96.5916 87.9315L95.9238 87.546L95.9378 84.8164L96.6055 85.2019Z" fill="#4466FB"/>
<path d="M97.9676 85.9889L98.3484 85.7676L98.3345 88.4972L97.9536 88.7185L97.9676 85.9889Z" fill="#3955D1"/>
<path d="M97.2998 85.6032L97.6806 85.3818L98.3484 85.7674L97.9676 85.9887L97.2998 85.6032Z" fill="#6BB5FB"/>
<path d="M97.9674 85.9886L97.9534 88.7182L97.2856 88.3326L97.2996 85.603L97.9674 85.9886Z" fill="#4466FB"/>
<path d="M89.7933 81.2692L90.1741 81.0479L90.1602 83.7775L89.7793 83.9988L89.7933 81.2692Z" fill="#3955D1"/>
<path d="M89.1255 80.8834L89.5063 80.6621L90.1741 81.0476L89.7932 81.269L89.1255 80.8834Z" fill="#6BB5FB"/>
<path d="M89.7931 81.2688L89.7791 83.9985L89.1113 83.6129L89.1253 80.8833L89.7931 81.2688Z" fill="#4466FB"/>
<path d="M99.1496 91.0661L99.1363 95.3092L88.5957 89.2236L88.609 84.9805L99.1496 91.0661Z" fill="#2E4277"/>
<path d="M91.1561 87.7003L91.5369 87.479L91.5229 90.2086L91.1421 90.4299L91.1561 87.7003Z" fill="#3955D1"/>
<path d="M90.4883 87.3146L90.8691 87.0933L91.5369 87.4788L91.156 87.7001L90.4883 87.3146Z" fill="#6BB5FB"/>
<path d="M91.1558 87.7L91.1419 90.4296L90.4741 90.0441L90.4881 87.3145L91.1558 87.7Z" fill="#4466FB"/>
<path d="M92.5179 88.487L92.8987 88.2656L92.8847 90.9952L92.5039 91.2166L92.5179 88.487Z" fill="#3955D1"/>
<path d="M91.8501 88.1012L92.2309 87.8799L92.8987 88.2654L92.5179 88.4867L91.8501 88.1012Z" fill="#6BB5FB"/>
<path d="M92.5177 88.4866L92.5037 91.2162L91.8359 90.8307L91.8499 88.1011L92.5177 88.4866Z" fill="#4466FB"/>
<path d="M93.8807 89.2736L94.2615 89.0522L94.2475 91.7819L93.8667 92.0032L93.8807 89.2736Z" fill="#3955D1"/>
<path d="M93.2129 88.8878L93.5937 88.6665L94.2615 89.052L93.8807 89.2733L93.2129 88.8878Z" fill="#6BB5FB"/>
<path d="M93.8805 89.2732L93.8665 92.0028L93.1987 91.6173L93.2127 88.8877L93.8805 89.2732Z" fill="#4466FB"/>
<path d="M95.243 90.0602L95.6238 89.8389L95.6099 92.5685L95.229 92.7898L95.243 90.0602Z" fill="#3955D1"/>
<path d="M94.5752 89.6745L94.956 89.4531L95.6238 89.8387L95.243 90.06L94.5752 89.6745Z" fill="#6BB5FB"/>
<path d="M95.2428 90.0598L95.2288 92.7895L94.561 92.4039L94.575 89.6743L95.2428 90.0598Z" fill="#4466FB"/>
<path d="M96.6058 90.8468L96.9866 90.6255L96.9726 93.3551L96.5918 93.5764L96.6058 90.8468Z" fill="#3955D1"/>
<path d="M95.938 90.4611L96.3188 90.2397L96.9866 90.6253L96.6057 90.8466L95.938 90.4611Z" fill="#6BB5FB"/>
<path d="M96.6055 90.8465L96.5916 93.5761L95.9238 93.1906L95.9378 90.4609L96.6055 90.8465Z" fill="#4466FB"/>
<path d="M97.9676 91.6334L98.3484 91.4121L98.3345 94.1417L97.9536 94.363L97.9676 91.6334Z" fill="#3955D1"/>
<path d="M97.2998 91.2477L97.6806 91.0264L98.3484 91.4119L97.9676 91.6332L97.2998 91.2477Z" fill="#6BB5FB"/>
<path d="M97.9674 91.6331L97.9534 94.3627L97.2856 93.9772L97.2996 91.2476L97.9674 91.6331Z" fill="#4466FB"/>
<path d="M89.7933 86.9137L90.1741 86.6924L90.1602 89.422L89.7793 89.6433L89.7933 86.9137Z" fill="#3955D1"/>
<path d="M89.1255 86.528L89.5063 86.3066L90.1741 86.6922L89.7932 86.9135L89.1255 86.528Z" fill="#6BB5FB"/>
<path d="M89.7931 86.9134L89.7791 89.643L89.1113 89.2574L89.1253 86.5278L89.7931 86.9134Z" fill="#4466FB"/>
<path d="M99.1496 96.7106L99.1363 100.954L88.5957 94.8681L88.609 90.625L99.1496 96.7106Z" fill="#2E4277"/>
<path d="M91.1561 93.3448L91.5369 93.1235L91.5229 95.8532L91.1421 96.0745L91.1561 93.3448Z" fill="#3955D1"/>
<path d="M90.4883 92.9591L90.8691 92.7378L91.5369 93.1233L91.156 93.3446L90.4883 92.9591Z" fill="#6BB5FB"/>
<path d="M91.1558 93.3445L91.1419 96.0741L90.4741 95.6886L90.4881 92.959L91.1558 93.3445Z" fill="#4466FB"/>
<path d="M92.5179 94.1315L92.8987 93.9102L92.8847 96.6398L92.5039 96.8611L92.5179 94.1315Z" fill="#3955D1"/>
<path d="M91.8501 93.7457L92.2309 93.5244L92.8987 93.9099L92.5179 94.1313L91.8501 93.7457Z" fill="#6BB5FB"/>
<path d="M92.5177 94.1311L92.5037 96.8608L91.8359 96.4752L91.8499 93.7456L92.5177 94.1311Z" fill="#4466FB"/>
<path d="M93.8807 94.9181L94.2615 94.6968L94.2475 97.4264L93.8667 97.6477L93.8807 94.9181Z" fill="#3955D1"/>
<path d="M93.2129 94.5324L93.5937 94.311L94.2615 94.6966L93.8807 94.9179L93.2129 94.5324Z" fill="#6BB5FB"/>
<path d="M93.8805 94.9178L93.8665 97.6474L93.1987 97.2618L93.2127 94.5322L93.8805 94.9178Z" fill="#4466FB"/>
<path d="M95.243 95.7047L95.6238 95.4834L95.6099 98.213L95.229 98.4343L95.243 95.7047Z" fill="#3955D1"/>
<path d="M94.5752 95.319L94.956 95.0977L95.6238 95.4832L95.243 95.7045L94.5752 95.319Z" fill="#6BB5FB"/>
<path d="M95.2428 95.7044L95.2288 98.434L94.561 98.0485L94.575 95.3188L95.2428 95.7044Z" fill="#4466FB"/>
<path d="M96.6058 96.4913L96.9866 96.27L96.9726 98.9996L96.5918 99.2209L96.6058 96.4913Z" fill="#3955D1"/>
<path d="M95.938 96.1056L96.3188 95.8843L96.9866 96.2698L96.6057 96.4911L95.938 96.1056Z" fill="#6BB5FB"/>
<path d="M96.6055 96.491L96.5916 99.2206L95.9238 98.8351L95.9378 96.1055L96.6055 96.491Z" fill="#4466FB"/>
<path d="M97.9676 97.278L98.3484 97.0566L98.3345 99.7863L97.9536 100.008L97.9676 97.278Z" fill="#3955D1"/>
<path d="M97.2998 96.8922L97.6806 96.6709L98.3484 97.0564L97.9676 97.2778L97.2998 96.8922Z" fill="#6BB5FB"/>
<path d="M97.9674 97.2776L97.9534 100.007L97.2856 99.6217L97.2996 96.8921L97.9674 97.2776Z" fill="#4466FB"/>
<path d="M89.7933 92.5582L90.1741 92.3369L90.1602 95.0665L89.7793 95.2878L89.7933 92.5582Z" fill="#3955D1"/>
<path d="M89.1255 92.1725L89.5063 91.9512L90.1741 92.3367L89.7932 92.558L89.1255 92.1725Z" fill="#6BB5FB"/>
<path d="M89.7931 92.5579L89.7791 95.2875L89.1113 94.902L89.1253 92.1724L89.7931 92.5579Z" fill="#4466FB"/>
<path d="M99.1496 102.355L99.1363 106.598L88.5957 100.513L88.609 96.2695L99.1496 102.355Z" fill="#2E4277"/>
<path d="M91.1561 98.9894L91.5369 98.7681L91.5229 101.498L91.1421 101.719L91.1561 98.9894Z" fill="#3955D1"/>
<path d="M90.4883 98.6036L90.8691 98.3823L91.5369 98.7678L91.156 98.9892L90.4883 98.6036Z" fill="#6BB5FB"/>
<path d="M91.1558 98.9891L91.1419 101.719L90.4741 101.333L90.4881 98.6035L91.1558 98.9891Z" fill="#4466FB"/>
<path d="M92.5179 99.776L92.8987 99.5547L92.8847 102.284L92.5039 102.506L92.5179 99.776Z" fill="#3955D1"/>
<path d="M91.8501 99.3903L92.2309 99.1689L92.8987 99.5545L92.5179 99.7758L91.8501 99.3903Z" fill="#6BB5FB"/>
<path d="M92.5177 99.7757L92.5037 102.505L91.8359 102.12L91.8499 99.3901L92.5177 99.7757Z" fill="#4466FB"/>
<path d="M93.8807 100.563L94.2615 100.341L94.2475 103.071L93.8667 103.292L93.8807 100.563Z" fill="#3955D1"/>
<path d="M93.2129 100.177L93.5937 99.9556L94.2615 100.341L93.8807 100.562L93.2129 100.177Z" fill="#6BB5FB"/>
<path d="M93.8805 100.562L93.8665 103.292L93.1987 102.906L93.2127 100.177L93.8805 100.562Z" fill="#4466FB"/>
<path d="M95.243 101.349L95.6238 101.128L95.6099 103.858L95.229 104.079L95.243 101.349Z" fill="#3955D1"/>
<path d="M94.5752 100.964L94.956 100.742L95.6238 101.128L95.243 101.349L94.5752 100.964Z" fill="#6BB5FB"/>
<path d="M95.2428 101.349L95.2288 104.079L94.561 103.693L94.575 100.963L95.2428 101.349Z" fill="#4466FB"/>
<path d="M96.6058 102.136L96.9866 101.915L96.9726 104.644L96.5918 104.865L96.6058 102.136Z" fill="#3955D1"/>
<path d="M95.938 101.75L96.3188 101.529L96.9866 101.914L96.6057 102.136L95.938 101.75Z" fill="#6BB5FB"/>
<path d="M96.6055 102.136L96.5916 104.865L95.9238 104.48L95.9378 101.75L96.6055 102.136Z" fill="#4466FB"/>
<path d="M97.9676 102.922L98.3484 102.701L98.3345 105.431L97.9536 105.652L97.9676 102.922Z" fill="#3955D1"/>
<path d="M97.2998 102.537L97.6806 102.315L98.3484 102.701L97.9676 102.922L97.2998 102.537Z" fill="#6BB5FB"/>
<path d="M97.9674 102.922L97.9534 105.652L97.2856 105.266L97.2996 102.537L97.9674 102.922Z" fill="#4466FB"/>
<path d="M89.7933 98.2028L90.1741 97.9814L90.1602 100.711L89.7793 100.932L89.7933 98.2028Z" fill="#3955D1"/>
<path d="M89.1255 97.817L89.5063 97.5957L90.1741 97.9812L89.7932 98.2026L89.1255 97.817Z" fill="#6BB5FB"/>
<path d="M89.7931 98.2024L89.7791 100.932L89.1113 100.547L89.1253 97.8169L89.7931 98.2024Z" fill="#4466FB"/>
<path d="M99.1496 108L99.1363 112.243L88.5957 106.157L88.609 101.914L99.1496 108Z" fill="#2E4277"/>
<path d="M91.1561 104.634L91.5369 104.413L91.5229 107.142L91.1421 107.364L91.1561 104.634Z" fill="#3955D1"/>
<path d="M90.4883 104.248L90.8691 104.027L91.5369 104.412L91.156 104.634L90.4883 104.248Z" fill="#6BB5FB"/>
<path d="M91.1558 104.634L91.1419 107.363L90.4741 106.978L90.4881 104.248L91.1558 104.634Z" fill="#4466FB"/>
<path d="M92.5179 105.421L92.8987 105.199L92.8847 107.929L92.5039 108.15L92.5179 105.421Z" fill="#3955D1"/>
<path d="M91.8501 105.035L92.2309 104.813L92.8987 105.199L92.5179 105.42L91.8501 105.035Z" fill="#6BB5FB"/>
<path d="M92.5177 105.42L92.5037 108.15L91.8359 107.764L91.8499 105.035L92.5177 105.42Z" fill="#4466FB"/>
<path d="M93.8807 106.207L94.2615 105.986L94.2475 108.715L93.8667 108.937L93.8807 106.207Z" fill="#3955D1"/>
<path d="M93.2129 105.821L93.5937 105.6L94.2615 105.986L93.8807 106.207L93.2129 105.821Z" fill="#6BB5FB"/>
<path d="M93.8805 106.207L93.8665 108.936L93.1987 108.551L93.2127 105.821L93.8805 106.207Z" fill="#4466FB"/>
<path d="M95.243 106.994L95.6238 106.772L95.6099 109.502L95.229 109.723L95.243 106.994Z" fill="#3955D1"/>
<path d="M94.5752 106.608L94.956 106.387L95.6238 106.772L95.243 106.994L94.5752 106.608Z" fill="#6BB5FB"/>
<path d="M95.2428 106.993L95.2288 109.723L94.561 109.338L94.575 106.608L95.2428 106.993Z" fill="#4466FB"/>
<path d="M96.6058 107.78L96.9866 107.559L96.9726 110.289L96.5918 110.51L96.6058 107.78Z" fill="#3955D1"/>
<path d="M95.938 107.395L96.3188 107.173L96.9866 107.559L96.6057 107.78L95.938 107.395Z" fill="#6BB5FB"/>
<path d="M96.6055 107.78L96.5916 110.51L95.9238 110.124L95.9378 107.395L96.6055 107.78Z" fill="#4466FB"/>
<path d="M97.9676 108.567L98.3484 108.346L98.3345 111.075L97.9536 111.297L97.9676 108.567Z" fill="#3955D1"/>
<path d="M97.2998 108.181L97.6806 107.96L98.3484 108.345L97.9676 108.567L97.2998 108.181Z" fill="#6BB5FB"/>
<path d="M97.9674 108.567L97.9534 111.296L97.2856 110.911L97.2996 108.181L97.9674 108.567Z" fill="#4466FB"/>
<path d="M89.7933 103.847L90.1741 103.626L90.1602 106.356L89.7793 106.577L89.7933 103.847Z" fill="#3955D1"/>
<path d="M89.1255 103.462L89.5063 103.24L90.1741 103.626L89.7932 103.847L89.1255 103.462Z" fill="#6BB5FB"/>
<path d="M89.7931 103.847L89.7791 106.577L89.1113 106.191L89.1253 103.461L89.7931 103.847Z" fill="#4466FB"/>
<path d="M113.336 106.865C113.28 106.897 113.234 106.978 113.234 107.042C113.234 107.108 113.281 107.135 113.337 107.102L115.84 105.657C115.896 105.625 115.943 105.545 115.943 105.478C115.942 105.414 115.896 105.387 115.839 105.42L113.336 106.865Z" fill="#384E85"/>
<path d="M113.335 106.313C113.279 106.345 113.233 106.426 113.233 106.492C113.233 106.557 113.28 106.583 113.336 106.551L115.839 105.106C115.895 105.073 115.942 104.993 115.942 104.928C115.941 104.862 115.895 104.835 115.838 104.868L113.335 106.313Z" fill="#384E85"/>
<path d="M113.334 105.763C113.278 105.795 113.231 105.874 113.231 105.941C113.232 106.005 113.278 106.032 113.335 105.999L115.838 104.554C115.894 104.522 115.94 104.441 115.94 104.377C115.94 104.311 115.893 104.285 115.837 104.318L113.334 105.763Z" fill="#384E85"/>
<path d="M113.332 105.211C113.276 105.244 113.23 105.323 113.23 105.389C113.23 105.453 113.277 105.48 113.333 105.448L115.836 104.002C115.892 103.97 115.939 103.89 115.939 103.825C115.938 103.759 115.892 103.734 115.835 103.766L113.332 105.211Z" fill="#384E85"/>
<path d="M113.329 104.108C113.273 104.141 113.226 104.22 113.227 104.286C113.227 104.35 113.273 104.377 113.33 104.345L115.833 102.899C115.889 102.867 115.935 102.787 115.935 102.722C115.935 102.656 115.888 102.631 115.832 102.663L113.329 104.108Z" fill="#384E85"/>
<path d="M113.331 104.66C113.274 104.692 113.228 104.771 113.228 104.837C113.228 104.902 113.275 104.929 113.331 104.896L115.834 103.451C115.89 103.419 115.937 103.338 115.937 103.274C115.936 103.208 115.89 103.182 115.833 103.215L113.331 104.66Z" fill="#384E85"/>
<path d="M113.336 101.844C113.28 101.877 113.234 101.957 113.234 102.022C113.234 102.088 113.281 102.115 113.337 102.082L115.84 100.637C115.896 100.604 115.943 100.524 115.943 100.458C115.942 100.393 115.896 100.367 115.839 100.399L113.336 101.844Z" fill="#384E85"/>
<path d="M113.335 101.292C113.279 101.325 113.233 101.405 113.233 101.471C113.233 101.536 113.28 101.563 113.336 101.53L115.839 100.085C115.895 100.053 115.942 99.9723 115.942 99.9076C115.941 99.8414 115.895 99.8148 115.838 99.8474L113.335 101.292Z" fill="#384E85"/>
<path d="M113.334 100.742C113.278 100.775 113.231 100.854 113.231 100.92C113.232 100.985 113.278 101.011 113.335 100.979L115.838 99.5337C115.894 99.5012 115.94 99.4209 115.94 99.3562C115.94 99.29 115.893 99.2648 115.837 99.2973L113.334 100.742Z" fill="#384E85"/>
<path d="M113.332 100.191C113.276 100.223 113.23 100.302 113.23 100.368C113.23 100.433 113.277 100.46 113.333 100.427L115.836 98.982C115.892 98.9494 115.939 98.8691 115.939 98.8044C115.938 98.7383 115.892 98.7131 115.835 98.7456L113.332 100.191Z" fill="#384E85"/>
<path d="M113.329 99.0876C113.273 99.1201 113.226 99.1991 113.227 99.2652C113.227 99.3299 113.273 99.3565 113.33 99.324L115.833 97.8789C115.889 97.8464 115.935 97.7661 115.935 97.7014C115.935 97.6352 115.888 97.61 115.832 97.6426L113.329 99.0876Z" fill="#384E85"/>
<path d="M113.331 99.6394C113.274 99.6719 113.228 99.7508 113.228 99.8169C113.228 99.8817 113.275 99.9083 113.331 99.8757L115.834 98.4307C115.89 98.3982 115.937 98.3178 115.937 98.2531C115.936 98.187 115.89 98.1618 115.833 98.1943L113.331 99.6394Z" fill="#384E85"/>
<path d="M113.336 96.8237C113.28 96.8562 113.234 96.9365 113.234 97.0013C113.234 97.0674 113.281 97.094 113.337 97.0615L115.84 95.6164C115.896 95.5839 115.943 95.5036 115.943 95.4374C115.942 95.3727 115.896 95.3461 115.839 95.3786L113.336 96.8237Z" fill="#384E85"/>
<path d="M113.335 96.2719C113.279 96.3044 113.233 96.3847 113.233 96.4509C113.233 96.5156 113.28 96.5422 113.336 96.5097L115.839 95.0646C115.895 95.0321 115.942 94.9518 115.942 94.8871C115.941 94.8209 115.895 94.7943 115.838 94.8268L113.335 96.2719Z" fill="#384E85"/>
<path d="M113.334 95.7219C113.278 95.7544 113.231 95.8334 113.231 95.8995C113.232 95.9642 113.278 95.9908 113.335 95.9583L115.838 94.5132C115.894 94.4807 115.94 94.4004 115.94 94.3357C115.94 94.2695 115.893 94.2443 115.837 94.2768L113.334 95.7219Z" fill="#384E85"/>
<path d="M113.332 95.1701C113.276 95.2027 113.23 95.2816 113.23 95.3477C113.23 95.4124 113.277 95.4391 113.333 95.4065L115.836 93.9615C115.892 93.9289 115.939 93.8486 115.939 93.7839C115.938 93.7177 115.892 93.6926 115.835 93.7251L113.332 95.1701Z" fill="#384E85"/>
<path d="M113.329 94.0671C113.273 94.0996 113.226 94.1786 113.227 94.2447C113.227 94.3094 113.273 94.336 113.33 94.3035L115.833 92.8585C115.889 92.8259 115.935 92.7456 115.935 92.6809C115.935 92.6147 115.888 92.5895 115.832 92.6221L113.329 94.0671Z" fill="#384E85"/>
<path d="M113.331 94.6189C113.274 94.6514 113.228 94.7303 113.228 94.7964C113.228 94.8612 113.275 94.8878 113.331 94.8553L115.834 93.4102C115.89 93.3777 115.937 93.2973 115.937 93.2326C115.936 93.1665 115.89 93.1413 115.833 93.1738L113.331 94.6189Z" fill="#384E85"/>
<path d="M113.336 91.8032C113.28 91.8357 113.234 91.9161 113.234 91.9808C113.234 92.0469 113.281 92.0735 113.337 92.041L115.84 90.5959C115.896 90.5634 115.943 90.4831 115.943 90.4169C115.942 90.3522 115.896 90.3256 115.839 90.3581L113.336 91.8032Z" fill="#384E85"/>
<path d="M113.335 91.2514C113.279 91.2839 113.233 91.3642 113.233 91.4304C113.233 91.4951 113.28 91.5217 113.336 91.4892L115.839 90.0441C115.895 90.0116 115.942 89.9313 115.942 89.8665C115.941 89.8004 115.895 89.7738 115.838 89.8063L113.335 91.2514Z" fill="#384E85"/>
<path d="M113.334 90.7014C113.278 90.7339 113.231 90.8129 113.231 90.879C113.232 90.9437 113.278 90.9703 113.335 90.9378L115.838 89.4927C115.894 89.4602 115.94 89.3799 115.94 89.3151C115.94 89.249 115.893 89.2238 115.837 89.2563L113.334 90.7014Z" fill="#384E85"/>
<path d="M113.332 90.1496C113.276 90.1822 113.23 90.2611 113.23 90.3272C113.23 90.3919 113.277 90.4185 113.333 90.386L115.836 88.941C115.892 88.9084 115.939 88.8281 115.939 88.7634C115.938 88.6972 115.892 88.6721 115.835 88.7046L113.332 90.1496Z" fill="#384E85"/>
<path d="M113.329 89.0466C113.273 89.0791 113.226 89.158 113.227 89.2242C113.227 89.2889 113.273 89.3155 113.33 89.283L115.833 87.8379C115.889 87.8054 115.935 87.7251 115.935 87.6604C115.935 87.5942 115.888 87.569 115.832 87.6015L113.329 89.0466Z" fill="#384E85"/>
<path d="M113.331 89.5979C113.274 89.6304 113.228 89.7093 113.228 89.7755C113.228 89.8402 113.275 89.8668 113.331 89.8343L115.834 88.3892C115.89 88.3567 115.937 88.2763 115.937 88.2116C115.936 88.1455 115.89 88.1203 115.833 88.1528L113.331 89.5979Z" fill="#384E85"/>
<path d="M113.336 86.7827C113.28 86.8152 113.234 86.8955 113.234 86.9603C113.234 87.0264 113.281 87.053 113.337 87.0205L115.84 85.5754C115.896 85.5429 115.943 85.4625 115.943 85.3964C115.942 85.3317 115.896 85.3051 115.839 85.3376L113.336 86.7827Z" fill="#384E85"/>
<path d="M113.335 86.2309C113.279 86.2634 113.233 86.3437 113.233 86.4099C113.233 86.4746 113.28 86.5012 113.336 86.4687L115.839 85.0236C115.895 84.9911 115.942 84.9108 115.942 84.846C115.941 84.7799 115.895 84.7533 115.838 84.7858L113.335 86.2309Z" fill="#384E85"/>
<path d="M113.334 85.6809C113.278 85.7134 113.231 85.7923 113.231 85.8585C113.232 85.9232 113.278 85.9498 113.335 85.9173L115.838 84.4722C115.894 84.4397 115.94 84.3594 115.94 84.2946C115.94 84.2285 115.893 84.2033 115.837 84.2358L113.334 85.6809Z" fill="#384E85"/>
<path d="M113.332 85.1291C113.276 85.1617 113.23 85.2406 113.23 85.3067C113.23 85.3714 113.277 85.398 113.333 85.3655L115.836 83.9204C115.892 83.8879 115.939 83.8076 115.939 83.7429C115.938 83.6767 115.892 83.6515 115.835 83.6841L113.332 85.1291Z" fill="#384E85"/>
<path d="M113.329 84.0261C113.273 84.0586 113.226 84.1375 113.227 84.2037C113.227 84.2684 113.273 84.295 113.33 84.2625L115.833 82.8174C115.889 82.7849 115.935 82.7046 115.935 82.6398C115.935 82.5737 115.888 82.5485 115.832 82.581L113.329 84.0261Z" fill="#384E85"/>
<path d="M113.331 84.5774C113.274 84.6099 113.228 84.6888 113.228 84.7549C113.228 84.8197 113.275 84.8463 113.331 84.8138L115.834 83.3687C115.89 83.3362 115.937 83.2558 115.937 83.1911C115.936 83.125 115.89 83.0998 115.833 83.1323L113.331 84.5774Z" fill="#384E85"/>
<path d="M113.336 81.7622C113.28 81.7947 113.234 81.875 113.234 81.9398C113.234 82.0059 113.281 82.0325 113.337 82L115.84 80.5549C115.896 80.5224 115.943 80.442 115.943 80.3759C115.942 80.3112 115.896 80.2846 115.839 80.3171L113.336 81.7622Z" fill="#384E85"/>
<path d="M113.335 81.2104C113.279 81.2429 113.233 81.3232 113.233 81.3893C113.233 81.4541 113.28 81.4807 113.336 81.4482L115.839 80.0031C115.895 79.9706 115.942 79.8902 115.942 79.8255C115.941 79.7594 115.895 79.7328 115.838 79.7653L113.335 81.2104Z" fill="#384E85"/>
<path d="M113.334 80.6604C113.278 80.6929 113.231 80.7718 113.231 80.838C113.232 80.9027 113.278 80.9293 113.335 80.8968L115.838 79.4517C115.894 79.4192 115.94 79.3388 115.94 79.2741C115.94 79.208 115.893 79.1828 115.837 79.2153L113.334 80.6604Z" fill="#384E85"/>
<path d="M113.332 80.1086C113.276 80.1411 113.23 80.2201 113.23 80.2862C113.23 80.3509 113.277 80.3775 113.333 80.345L115.836 78.8999C115.892 78.8674 115.939 78.7871 115.939 78.7224C115.938 78.6562 115.892 78.631 115.835 78.6636L113.332 80.1086Z" fill="#384E85"/>
<path d="M113.329 79.0056C113.273 79.0381 113.226 79.117 113.227 79.1832C113.227 79.2479 113.273 79.2745 113.33 79.242L115.833 77.7969C115.889 77.7644 115.935 77.6841 115.935 77.6193C115.935 77.5532 115.888 77.528 115.832 77.5605L113.329 79.0056Z" fill="#384E85"/>
<path d="M113.331 79.5574C113.274 79.5899 113.228 79.6688 113.228 79.7349C113.228 79.7996 113.275 79.8263 113.331 79.7937L115.834 78.3487C115.89 78.3161 115.937 78.2358 115.937 78.1711C115.936 78.105 115.89 78.0798 115.833 78.1123L113.331 79.5574Z" fill="#384E85"/>
<path d="M113.336 76.7417C113.28 76.7742 113.234 76.8545 113.234 76.9192C113.234 76.9854 113.281 77.012 113.337 76.9795L115.84 75.5344C115.896 75.5019 115.943 75.4215 115.943 75.3554C115.942 75.2907 115.896 75.2641 115.839 75.2966L113.336 76.7417Z" fill="#384E85"/>
<path d="M113.335 76.1899C113.279 76.2224 113.233 76.3027 113.233 76.3688C113.233 76.4336 113.28 76.4602 113.336 76.4277L115.839 74.9826C115.895 74.9501 115.942 74.8697 115.942 74.805C115.941 74.7389 115.895 74.7123 115.838 74.7448L113.335 76.1899Z" fill="#384E85"/>
<path d="M113.334 75.6399C113.278 75.6724 113.231 75.7513 113.231 75.8175C113.232 75.8822 113.278 75.9088 113.335 75.8763L115.838 74.4312C115.894 74.3987 115.94 74.3183 115.94 74.2536C115.94 74.1875 115.893 74.1623 115.837 74.1948L113.334 75.6399Z" fill="#384E85"/>
<path d="M113.332 75.0881C113.276 75.1206 113.23 75.1996 113.23 75.2657C113.23 75.3304 113.277 75.357 113.333 75.3245L115.836 73.8794C115.892 73.8469 115.939 73.7666 115.939 73.7019C115.938 73.6357 115.892 73.6105 115.835 73.6431L113.332 75.0881Z" fill="#384E85"/>
<path d="M113.329 73.9851C113.273 74.0176 113.226 74.0965 113.227 74.1626C113.227 74.2274 113.273 74.254 113.33 74.2215L115.833 72.7764C115.889 72.7439 115.935 72.6635 115.935 72.5988C115.935 72.5327 115.888 72.5075 115.832 72.54L113.329 73.9851Z" fill="#384E85"/>
<path d="M113.331 74.5364C113.274 74.5689 113.228 74.6478 113.228 74.7139C113.228 74.7787 113.275 74.8053 113.331 74.7727L115.834 73.3277C115.89 73.2951 115.937 73.2148 115.937 73.1501C115.936 73.084 115.89 73.0588 115.833 73.0913L113.331 74.5364Z" fill="#384E85"/>
<path d="M105.313 108.528C105.301 109.133 104.886 109.868 104.364 110.165C104.21 110.26 104.044 110.307 103.901 110.307C103.795 110.307 103.688 110.284 103.605 110.224C103.391 110.106 103.261 109.856 103.261 109.536C103.261 108.931 103.676 108.207 104.21 107.899C104.483 107.733 104.768 107.721 104.981 107.84C105.195 107.97 105.313 108.207 105.313 108.528Z" fill="#8CA1FD"/>
<path d="M106.647 110.193L104.23 108.798L104.033 109.141L106.448 110.535C106.668 110.663 106.805 110.899 106.805 111.151V117.781C106.805 118.356 106.496 118.892 105.997 119.181L95.053 125.542C94.5561 125.833 93.935 125.833 93.431 125.543L62.446 107.655C62.2242 107.527 62.0911 107.298 62.0911 107.041C62.0893 106.784 62.2206 106.553 62.4442 106.425L68.5135 102.897C69.1328 102.539 69.5161 101.87 69.5161 101.155V90.4449C69.5161 90.0722 69.3156 89.7226 68.9926 89.5345L67.6971 88.7873L67.619 88.7412L67.4185 89.0837L68.7956 89.877C68.9961 89.9941 69.1221 90.2106 69.1221 90.4449V101.155C69.1221 101.731 68.8134 102.267 68.3147 102.555L62.2454 106.083C61.9012 106.283 61.6953 106.642 61.6953 107.041C61.6953 107.439 61.9012 107.797 62.2472 107.998L93.2322 125.886C93.5375 126.062 93.8871 126.154 94.2402 126.154C94.5934 126.154 94.943 126.06 95.2518 125.882L106.196 119.522C106.815 119.162 107.199 118.495 107.199 117.781V111.151C107.199 110.759 106.987 110.392 106.647 110.193Z" fill="#8CA1FD"/>
<path d="M68.5595 88.5096C68.5476 89.1147 68.1323 89.8503 67.6102 90.1469C67.456 90.2419 67.2899 90.2893 67.1476 90.2893C67.0408 90.2893 66.934 90.2655 66.851 90.2062C66.6374 90.0876 66.5068 89.8384 66.5068 89.5181C66.5068 88.913 66.9221 88.1892 67.456 87.8808C67.7289 87.7147 68.0137 87.7028 68.2272 87.8214C68.4408 87.952 68.5595 88.1893 68.5595 88.5096Z" fill="#8CA1FD"/>
<path d="M85.4366 86.9118L84.5742 86.4106L84.594 125.571L85.4564 126.072L85.4366 86.9118Z" fill="#2E4277"/>
<path d="M101.065 77.8889L100.202 77.3877L84.5742 86.4107L85.4366 86.9119L101.065 77.8889Z" fill="#384E85"/>
<path d="M85.4365 86.9121L85.4589 126.07L101.082 117.052L101.06 77.8936L85.4365 86.9121ZM87.3196 86.9145L99.1822 80.0728L99.1934 115.867L87.342 122.709L87.3196 86.9145Z" fill="#1B2A4F"/>
<path d="M85.8242 105.599L86.5395 106.01C86.5905 106.041 86.6346 106.042 86.6686 106.024L87.0849 105.782L87.0832 106.117C87.0815 106.287 87.022 106.408 86.9235 106.465L87.5232 106.117C87.6201 106.059 87.6812 105.94 87.6812 105.769L87.6863 102.937C87.688 102.592 87.4451 102.172 87.146 102.001L86.4308 101.588L85.8327 101.934L86.5463 102.347C86.847 102.521 87.0883 102.94 87.0883 103.285L87.0849 105.633L86.424 105.251L85.8242 105.599Z" fill="#B7C5FD"/>
<path d="M85.8324 101.936L85.8312 102.351L86.5461 102.763C86.6459 102.821 86.7259 102.961 86.7255 103.075L86.7204 105.908C86.7201 106.023 86.6396 106.069 86.5398 106.011L85.8249 105.598L85.8237 106.015L86.5386 106.427C86.838 106.6 87.0817 106.46 87.0827 106.117L87.0878 103.285C87.0888 102.941 86.8466 102.521 86.5472 102.348L85.8324 101.936Z" fill="#798FFE"/>
<path opacity="0.3" d="M99.1776 80.0703L99.1951 115.869L87.3441 122.711L87.3257 86.9121L99.1776 80.0703Z" fill="#4466FB"/>
<g opacity="0.2">
<path opacity="0.2" d="M99.178 81.2012L87.3286 92.8765L87.3305 96.4815L99.1786 82.3408L99.178 81.2012Z" fill="white"/>
<path opacity="0.2" d="M99.1805 86.373L87.3325 100.514L87.3344 104.118L99.1853 92.6445L99.1805 86.373Z" fill="white"/>
<path opacity="0.2" d="M99.1867 99.1245L87.3369 109.009L87.3388 112.675L99.1878 101.338L99.1867 99.1245Z" fill="white"/>
<path opacity="0.2" d="M87.3408 116.708L87.3426 120.156L99.1933 108.899L99.1898 105.371L87.3408 116.708Z" fill="white"/>
</g>
</svg>
