<svg width="164" height="164" viewBox="0 0 164 164" fill="none" xmlns="http://www.w3.org/2000/svg">
<circle cx="82" cy="82" r="82" fill="#F9F9FA"/>
<path d="M54.0293 102.413L81.686 86.1323L110.359 102.901L82.7018 119.182L54.0293 102.413Z" fill="#D9DDF6"/>
<path d="M82.7024 119.182L110.359 102.901L110.33 104.719L82.6729 121L82.7024 119.182Z" fill="#AABAFD"/>
<path d="M82.7021 119.183L82.6725 121.001L54 104.231L54.0296 102.414L82.7021 119.183Z" fill="#B7C5FD"/>
<path d="M81.6982 68.5139L104.083 56.0347L104.06 103.594L82.5622 116.25L81.6982 68.5139Z" fill="#1B2A4F"/>
<path d="M94.793 104.891L94.7959 105.925L101.894 101.774L101.891 100.739L94.793 104.891Z" fill="#384E85"/>
<path d="M94.7725 97.7358L94.7754 98.7706L101.873 94.6193L101.871 93.5845L94.7725 97.7358Z" fill="#384E85"/>
<path d="M94.7773 99.5243L94.7802 100.559L101.878 96.4079L101.875 95.373L94.7773 99.5243Z" fill="#384E85"/>
<path d="M94.7822 101.313L94.7851 102.348L101.883 98.1965L101.88 97.1616L94.7822 101.313Z" fill="#384E85"/>
<path d="M94.7881 103.101L94.791 104.136L101.889 99.985L101.886 98.9502L94.7881 103.101Z" fill="#384E85"/>
<path d="M94.793 73.3808L94.7959 74.4156L101.894 70.2643L101.891 69.2295L94.793 73.3808Z" fill="#384E85"/>
<path d="M94.7725 66.2255L94.7754 67.2604L101.873 63.1091L101.871 62.0742L94.7725 66.2255Z" fill="#384E85"/>
<path d="M94.7773 68.0146L94.7802 69.0494L101.878 64.8981L101.875 63.8633L94.7773 68.0146Z" fill="#384E85"/>
<path d="M94.7822 69.8031L94.7851 70.838L101.883 66.6867L101.88 65.6519L94.7822 69.8031Z" fill="#384E85"/>
<path d="M94.7881 71.5917L94.791 72.6266L101.889 68.4753L101.886 67.4404L94.7881 71.5917Z" fill="#384E85"/>
<path d="M82.5857 68.5138L82.5626 116.25L60.2754 103.215L60.2984 55.6553L82.5857 68.5138Z" fill="#2E4277"/>
<path d="M80.7794 70.2553L81.6999 69.7134L81.6803 74.773L80.7598 75.3149L80.7794 70.2553Z" fill="#4466FB"/>
<path d="M61.1831 58.7948L62.1036 58.2529L81.6998 69.7137L80.7793 70.2556L61.1831 58.7948Z" fill="#B7C5FD"/>
<path d="M80.7789 70.2557L80.7593 75.3153L61.1631 63.8545L61.1827 58.7949L80.7789 70.2557Z" fill="#B7C5FD"/>
<path d="M80.7789 70.2557L80.7593 75.3153L61.1631 63.8545L61.1827 58.7949L80.7789 70.2557Z" fill="#4466FB"/>
<path d="M63.8215 61.7099L63.8187 62.4012L62.4463 61.5985L62.4491 60.9072L63.8215 61.7099Z" fill="#384E85"/>
<path d="M65.8143 62.8745L65.8115 63.5658L64.4424 62.765L64.4452 62.0737L65.8143 62.8745Z" fill="#384E85"/>
<path d="M78.9796 70.5756L78.9769 71.2669L77.6045 70.4643L77.6073 69.7729L78.9796 70.5756Z" fill="#384E85"/>
<path d="M78.8965 72.8542C78.9976 72.7946 78.9973 72.6029 78.8958 72.426C78.7943 72.2491 78.63 72.1539 78.5289 72.2135C78.4277 72.273 78.428 72.4647 78.5295 72.6417C78.631 72.8186 78.7953 72.9137 78.8965 72.8542Z" fill="white"/>
<path d="M77.831 71.715C77.976 71.7999 78.0901 72.003 78.0897 72.1688C78.0892 72.3347 77.9743 72.4039 77.8293 72.3191C77.6869 72.2358 77.5728 72.0326 77.5732 71.8668C77.5737 71.701 77.6886 71.6317 77.831 71.715Z" fill="white"/>
<path d="M77.1328 71.8229C77.2339 71.7634 77.2337 71.5717 77.1322 71.3947C77.0307 71.2178 76.8664 71.1227 76.7652 71.1822C76.664 71.2418 76.6643 71.4335 76.7658 71.6104C76.8673 71.7873 77.0316 71.8825 77.1328 71.8229Z" fill="white"/>
<path d="M76.25 71.3068C76.3511 71.2473 76.3509 71.0556 76.2494 70.8786C76.1479 70.7017 75.9836 70.6065 75.8824 70.6661C75.7812 70.7256 75.7815 70.9174 75.883 71.0943C75.9845 71.2712 76.1488 71.3664 76.25 71.3068Z" fill="white"/>
<path d="M61.8513 59.8325L61.7332 59.7637L61.7185 63.486L61.7178 63.5313L80.0922 74.2774L80.2103 74.3462L80.225 70.6239L80.2257 70.5786L61.8513 59.8325ZM80.0529 74.071L61.8767 63.4406L61.8906 60.0388L80.0667 70.6692L80.0529 74.071Z" fill="#4466FB"/>
<path d="M80.7794 77.8622L81.6999 77.3203L81.6803 82.3799L80.7598 82.9218L80.7794 77.8622Z" fill="#4466FB"/>
<path d="M61.1831 66.4017L62.1036 65.8599L81.6998 77.3207L80.7793 77.8625L61.1831 66.4017Z" fill="#B7C5FD"/>
<path d="M80.7789 77.8627L80.7593 82.9223L61.1631 71.4615L61.1827 66.4019L80.7789 77.8627Z" fill="#B7C5FD"/>
<path d="M80.7789 77.8627L80.7593 82.9223L61.1631 71.4615L61.1827 66.4019L80.7789 77.8627Z" fill="#4466FB"/>
<path d="M63.8215 69.3168L63.8187 70.0081L62.4463 69.2055L62.4491 68.5142L63.8215 69.3168Z" fill="#384E85"/>
<path d="M65.8143 70.4814L65.8115 71.1727L64.4424 70.372L64.4452 69.6807L65.8143 70.4814Z" fill="#384E85"/>
<path d="M78.9796 78.1825L78.9769 78.8738L77.6045 78.0712L77.6073 77.3799L78.9796 78.1825Z" fill="#384E85"/>
<path d="M78.8965 80.4611C78.9976 80.4016 78.9973 80.2098 78.8958 80.0329C78.7943 79.856 78.63 79.7608 78.5289 79.8204C78.4277 79.8799 78.428 80.0717 78.5295 80.2486C78.631 80.4255 78.7953 80.5207 78.8965 80.4611Z" fill="white"/>
<path d="M77.831 79.3225C77.976 79.4073 78.0901 79.6104 78.0897 79.7763C78.0892 79.9421 77.9743 80.0114 77.8293 79.9265C77.6869 79.8432 77.5728 79.6401 77.5732 79.4742C77.5737 79.3084 77.6886 79.2392 77.831 79.3225Z" fill="white"/>
<path d="M77.1318 79.4299C77.233 79.3703 77.2327 79.1786 77.1312 79.0017C77.0297 78.8247 76.8654 78.7296 76.7642 78.7891C76.6631 78.8487 76.6633 79.0404 76.7648 79.2173C76.8663 79.3943 77.0306 79.4894 77.1318 79.4299Z" fill="white"/>
<path d="M76.25 78.9142C76.3511 78.8547 76.3509 78.663 76.2494 78.486C76.1479 78.3091 75.9836 78.214 75.8824 78.2735C75.7812 78.3331 75.7815 78.5248 75.883 78.7017C75.9845 78.8786 76.1488 78.9738 76.25 78.9142Z" fill="white"/>
<path d="M61.8513 67.4394L61.7332 67.3706L61.7185 71.0929L61.7178 71.1382L80.0922 81.8843L80.2103 81.9531L80.225 78.2308L80.2257 78.1855L61.8513 67.4394ZM80.0529 81.678L61.8767 71.0476L61.8906 67.6457L80.0668 78.2761L80.0529 81.678Z" fill="#4466FB"/>
<path d="M80.7794 85.4696L81.6999 84.9277L81.6803 89.9874L80.7598 90.5292L80.7794 85.4696Z" fill="#4466FB"/>
<path d="M61.1831 74.0087L62.1036 73.4668L81.6998 84.9276L80.7793 85.4695L61.1831 74.0087Z" fill="#B7C5FD"/>
<path d="M80.7789 85.4696L80.7593 90.5292L61.1631 79.0684L61.1827 74.0088L80.7789 85.4696Z" fill="#B7C5FD"/>
<path d="M80.7789 85.4696L80.7593 90.5292L61.1631 79.0684L61.1827 74.0088L80.7789 85.4696Z" fill="#4466FB"/>
<path d="M63.8215 76.9242L63.8187 77.6155L62.4463 76.8129L62.4491 76.1216L63.8215 76.9242Z" fill="#384E85"/>
<path d="M65.8143 78.0888L65.8115 78.7801L64.4424 77.9794L64.4452 77.2881L65.8143 78.0888Z" fill="#384E85"/>
<path d="M78.9796 85.7895L78.9769 86.4808L77.6045 85.6781L77.6073 84.9868L78.9796 85.7895Z" fill="#384E85"/>
<path d="M78.8965 88.068C78.9976 88.0085 78.9973 87.8168 78.8958 87.6399C78.7943 87.4629 78.63 87.3678 78.5289 87.4273C78.4277 87.4869 78.428 87.6786 78.5295 87.8555C78.631 88.0325 78.7953 88.1276 78.8965 88.068Z" fill="white"/>
<path d="M77.831 86.9294C77.976 87.0142 78.0901 87.2174 78.0897 87.3832C78.0892 87.549 77.9743 87.6183 77.8293 87.5335C77.6869 87.4502 77.5728 87.247 77.5732 87.0812C77.5737 86.9153 77.6886 86.8461 77.831 86.9294Z" fill="white"/>
<path d="M77.1318 87.0368C77.233 86.9772 77.2327 86.7855 77.1312 86.6086C77.0297 86.4317 76.8654 86.3365 76.7642 86.3961C76.6631 86.4556 76.6633 86.6473 76.7648 86.8243C76.8663 87.0012 77.0306 87.0964 77.1318 87.0368Z" fill="white"/>
<path d="M76.25 86.5207C76.3511 86.4611 76.3509 86.2694 76.2494 86.0925C76.1479 85.9156 75.9836 85.8204 75.8824 85.88C75.7812 85.9395 75.7815 86.1312 75.883 86.3082C75.9845 86.4851 76.1488 86.5802 76.25 86.5207Z" fill="white"/>
<path d="M61.8513 75.0463L61.7332 74.9775L61.7185 78.6998L61.7178 78.7452L80.0922 89.4913L80.2103 89.56L80.225 85.8378L80.2257 85.7924L61.8513 75.0463ZM80.0529 89.2849L61.8767 78.6545L61.8906 75.2527L80.0668 85.8831L80.0529 89.2849Z" fill="#4466FB"/>
<path d="M80.7794 93.0761L81.6999 92.5342L81.6803 97.5938L80.7598 98.1357L80.7794 93.0761Z" fill="#4466FB"/>
<path d="M61.1831 81.6156L62.1036 81.0737L81.6998 92.5345L80.7793 93.0764L61.1831 81.6156Z" fill="#B7C5FD"/>
<path d="M80.7789 93.076L80.7593 98.1356L61.1631 86.6748L61.1827 81.6152L80.7789 93.076Z" fill="#B7C5FD"/>
<path d="M80.7789 93.076L80.7593 98.1356L61.1631 86.6748L61.1827 81.6152L80.7789 93.076Z" fill="#4466FB"/>
<path d="M63.8215 84.5307L63.8187 85.222L62.4463 84.4193L62.4491 83.728L63.8215 84.5307Z" fill="#384E85"/>
<path d="M65.8143 85.6958L65.8115 86.3871L64.4424 85.5863L64.4452 84.895L65.8143 85.6958Z" fill="#384E85"/>
<path d="M78.9796 93.3964L78.9769 94.0877L77.6045 93.285L77.6073 92.5938L78.9796 93.3964Z" fill="#384E85"/>
<path d="M78.8965 95.675C78.9976 95.6154 78.9973 95.4237 78.8958 95.2468C78.7943 95.0699 78.63 94.9747 78.5289 95.0343C78.4277 95.0938 78.428 95.2855 78.5295 95.4625C78.631 95.6394 78.7953 95.7345 78.8965 95.675Z" fill="white"/>
<path d="M77.831 94.5363C77.976 94.6211 78.0901 94.8243 78.0897 94.9901C78.0892 95.156 77.9743 95.2252 77.8293 95.1404C77.6869 95.0571 77.5728 94.8539 77.5732 94.6881C77.5737 94.5223 77.6886 94.453 77.831 94.5363Z" fill="white"/>
<path d="M77.1318 94.6442C77.233 94.5847 77.2327 94.393 77.1312 94.216C77.0297 94.0391 76.8654 93.9439 76.7642 94.0035C76.6631 94.063 76.6633 94.2548 76.7648 94.4317C76.8663 94.6086 77.0306 94.7038 77.1318 94.6442Z" fill="white"/>
<path d="M76.25 94.1281C76.3511 94.0686 76.3509 93.8768 76.2494 93.6999C76.1479 93.523 75.9836 93.4278 75.8824 93.4874C75.7812 93.5469 75.7815 93.7386 75.883 93.9156C75.9845 94.0925 76.1488 94.1877 76.25 94.1281Z" fill="white"/>
<path d="M61.8513 82.6528L61.7332 82.584L61.7185 86.3063L61.7178 86.3516L80.0922 97.0977L80.2103 97.1665L80.225 93.4442L80.2257 93.3989L61.8513 82.6528ZM80.0529 96.8913L61.8767 86.2609L61.8906 82.8591L80.0668 93.4895L80.0529 96.8913Z" fill="#4466FB"/>
<path d="M80.7794 100.683L81.6999 100.141L81.6803 105.201L80.7598 105.743L80.7794 100.683Z" fill="#4466FB"/>
<path d="M61.1831 89.222L62.1036 88.6802L81.6998 100.141L80.7793 100.683L61.1831 89.222Z" fill="#B7C5FD"/>
<path d="M80.7789 100.683L80.7593 105.743L61.1631 94.2818L61.1827 89.2222L80.7789 100.683Z" fill="#B7C5FD"/>
<path d="M80.7789 100.683L80.7593 105.743L61.1631 94.2818L61.1827 89.2222L80.7789 100.683Z" fill="#386DF4"/>
<path d="M63.8215 92.1376L63.8187 92.8289L62.4463 92.0263L62.4491 91.335L63.8215 92.1376Z" fill="#384E85"/>
<path d="M65.8143 93.3022L65.8115 93.9935L64.4424 93.1928L64.4452 92.5015L65.8143 93.3022Z" fill="#384E85"/>
<path d="M78.9796 101.003L78.9769 101.695L77.6045 100.892L77.6073 100.201L78.9796 101.003Z" fill="#384E85"/>
<path d="M78.8965 103.281C78.9976 103.222 78.9973 103.03 78.8958 102.853C78.7943 102.676 78.63 102.581 78.5289 102.641C78.4277 102.7 78.428 102.892 78.5295 103.069C78.631 103.246 78.7953 103.341 78.8965 103.281Z" fill="white"/>
<path d="M77.831 102.143C77.976 102.228 78.0901 102.431 78.0897 102.597C78.0892 102.763 77.9743 102.832 77.8293 102.747C77.6869 102.664 77.5728 102.461 77.5732 102.295C77.5737 102.129 77.6886 102.06 77.831 102.143Z" fill="white"/>
<path d="M77.1318 102.251C77.233 102.191 77.2327 101.999 77.1312 101.822C77.0297 101.646 76.8654 101.55 76.7642 101.61C76.6631 101.669 76.6633 101.861 76.7648 102.038C76.8663 102.215 77.0306 102.31 77.1318 102.251Z" fill="white"/>
<path d="M76.25 101.735C76.3511 101.675 76.3509 101.483 76.2494 101.306C76.1479 101.129 75.9836 101.034 75.8824 101.094C75.7812 101.153 75.7815 101.345 75.883 101.522C75.9845 101.699 76.1488 101.794 76.25 101.735Z" fill="white"/>
<path d="M61.8513 90.2597L61.7332 90.1909L61.7185 93.9132L61.7178 93.9585L80.0922 104.705L80.2103 104.773L80.225 101.051L80.2257 101.006L61.8513 90.2597ZM80.0529 104.498L61.8767 93.8679L61.8906 90.4661L80.0668 101.096L80.0529 104.498Z" fill="#4466FB"/>
<path d="M79.6046 106.515V109.658L79.5902 112.569L78.3115 111.812V108.916L78.3259 105.758L79.6046 106.515Z" fill="#1B2A4F"/>
<path d="M65.0228 97.9717L66.3015 98.7285L66.2871 101.887V104.783L64.9941 104.026L65.0085 101.13L65.0228 97.9717Z" fill="#1B2A4F"/>
<path d="M68.2835 99.8927L68.9588 100.286L68.9445 103.429V106.34L68.2691 105.947L67.6514 105.583L67.6657 102.687L67.6801 99.5288L68.2835 99.8927Z" fill="#1B2A4F"/>
<path d="M72.9968 102.643L74.2898 103.4L74.2754 106.558V109.454L72.9824 108.697V105.801L72.9968 102.643Z" fill="#1B2A4F"/>
<path d="M76.2587 104.55L76.9484 104.957V108.101L76.934 111.012L76.2443 110.604L75.6553 110.255V107.359L75.6696 104.201L76.2587 104.55Z" fill="#1B2A4F"/>
<path d="M70.3386 101.086L71.6173 101.843V104.987L71.6029 107.898L70.3242 107.141V104.245L70.3386 101.086Z" fill="#1B2A4F"/>
<path d="M62.3503 96.4287L63.6434 97.171L63.629 100.329V103.225L62.3359 102.483L62.3503 99.5724V96.4287Z" fill="#1B2A4F"/>
<path d="M92.8794 104.11C92.8679 104.122 91.8478 105.672 92.2767 108.866C93.1693 115.594 90.5495 121.289 82.6669 118.8L82.354 118.706L82.0409 118.436C74.17 111.707 71.5965 102.971 72.5239 97.311C72.9644 94.6102 71.9559 91.8977 71.9559 91.8742L71.3184 90.2185L75.6074 89.1616L76.3145 89.8897C76.8362 90.4298 77.381 90.8643 77.9258 91.1931C79.9312 92.3556 81.5193 91.7685 81.5309 91.7685L82.4351 91.4279L83.3277 92.8253C83.3393 92.837 84.9274 95.2795 86.9212 96.442C87.466 96.7708 88.0109 96.9704 88.5441 97.0409L89.2396 97.1348L93.5171 103.206L92.8794 104.11Z" fill="#B7C5FD"/>
<path d="M95.365 102.113L91.0915 96.042L90.3891 95.9489C89.8705 95.8824 89.3191 95.6763 88.7676 95.3571C86.7786 94.1867 85.1965 91.7529 85.1833 91.7396L84.284 90.3364L83.3847 90.6823L83.3649 90.6889C83.168 90.7487 81.6516 91.1943 79.7807 90.0971C79.2293 89.7779 78.6845 89.339 78.1592 88.8003L77.4569 88.0688L73.1702 89.1328L71.333 90.2152L75.6083 89.1617L76.3154 89.8897C76.8371 90.4299 77.3819 90.8644 77.9267 91.1931C79.9321 92.3557 81.5202 91.7686 81.5318 91.7686L82.436 91.428L83.3286 92.8254C83.3402 92.8371 84.9283 95.2796 86.9221 96.4421C87.4669 96.7709 88.0118 96.9705 88.545 97.041L89.2405 97.1349L93.518 103.206L92.8804 104.11C92.8688 104.122 91.8487 105.672 92.2776 108.866C92.8344 113.063 92.0234 116.857 89.4217 118.514L91.1178 117.521C93.8421 115.912 94.6955 112.055 94.1243 107.772C93.7042 104.58 94.7217 103.031 94.7283 103.018L95.365 102.113Z" fill="#D9DDF6"/>
<path d="M82.4247 93.5378C82.521 93.6895 84.3508 96.5725 86.9147 98.0721C87.5866 98.465 88.3023 98.7525 89.0386 98.8524L91.6688 102.59C91.6041 102.681 90.3749 104.408 90.8971 108.33C91.6165 113.754 89.7495 119.362 82.3589 117.033C74.9795 110.724 73.1498 102.954 73.8973 98.3873C74.4397 95.0885 73.2241 91.9311 73.1602 91.7649L75.8026 91.1113C76.5381 91.8724 77.2533 92.4216 77.9256 92.8148C80.4902 94.3147 82.3279 93.5766 82.4247 93.5378Z" fill="#3955D1"/>
<path d="M84.8858 104.864C85.4509 105.194 85.9052 105.986 85.9034 106.644L85.8896 111.567C85.8878 112.214 85.4306 112.478 84.8654 112.147L79.3965 108.949C78.8314 108.618 78.3771 107.821 78.3789 107.174L78.3927 102.251C78.3945 101.593 78.8517 101.335 79.4169 101.665L84.8858 104.864ZM82.4819 107.464C82.774 107.481 82.9755 107.264 82.9766 106.871C82.9781 106.33 82.6056 105.682 82.1453 105.413C81.685 105.144 81.3101 105.355 81.3086 105.896C81.3075 106.288 81.5071 106.74 81.7983 107.064L81.7943 108.502L82.4779 108.902L82.4819 107.464Z" fill="white"/>
<path d="M82.1797 98.6951C82.2031 98.7088 82.2265 98.7229 82.2501 98.7373C83.7038 99.6353 84.8846 101.803 84.8797 103.559L84.876 104.859L83.9873 104.339L83.9909 103.039C83.9943 101.84 83.1996 100.366 82.2153 99.7531C82.1983 99.7426 82.1813 99.7324 82.1643 99.7225C81.6859 99.4426 81.2272 99.3907 80.8828 99.5742C80.5216 99.7721 80.3241 100.204 80.3225 100.782L80.3186 102.193L79.4253 101.671L79.4292 100.26C79.4316 99.4003 79.7256 98.7646 80.2651 98.469C80.7829 98.1906 81.4667 98.2782 82.1797 98.6951Z" fill="white"/>
<path d="M60.2993 55.6553L81.797 43L104.084 56.0347L82.5866 68.69L60.2993 55.6553Z" fill="#384E85"/>
<path d="M97.2431 55.0233C98.0187 55.4769 98.0223 56.2121 97.2517 56.6657L83.6395 64.679C82.8689 65.1326 81.616 65.133 80.8404 64.6793L67.1391 56.6662C66.3635 56.2125 66.3594 55.4771 67.13 55.0234L80.7422 47.0102C81.5128 46.5565 82.7662 46.5565 83.5419 47.0101L97.2431 55.0233Z" fill="#1B2A4F"/>
</svg>
